<svg width="256" height="256" viewBox="0 0 256 256" fill="none" xmlns="http://www.w3.org/2000/svg">
<rect width="256" height="256" rx="48" fill="url(#paint0_linear_1151_23591)"/>
<path d="M95.1697 114.407C95.1696 126.919 85.0267 137.062 72.5149 137.062H66.851V61.1682C66.851 53.1168 73.3127 46.5746 81.3331 46.4445L81.5766 46.4426H139.913C175.259 46.4426 203.913 75.0963 203.913 110.443C203.913 145.435 175.829 173.869 140.971 174.434L139.913 174.443H98.0014C96.4786 174.443 95.2365 175.645 95.1722 177.152L95.1695 177.274V191.431C95.1695 203.943 85.0266 214.086 72.5147 214.086H66.851V177.274C66.851 160.243 80.5199 146.403 97.4863 146.128L98.0014 146.124H139.913C159.619 146.124 175.594 130.149 175.594 110.443C175.594 90.9333 159.937 75.081 140.503 74.7659L139.913 74.7612H95.1701L95.1697 114.407Z" fill="white"/>
<defs>
<linearGradient id="paint0_linear_1151_23591" x1="226.56" y1="256" x2="226.56" y2="0" gradientUnits="userSpaceOnUse">
<stop stop-color="#E73F33"/>
<stop offset="1" stop-color="#EA4B3D"/>
</linearGradient>
</defs>
</svg>
