<svg width="256" height="256" viewBox="0 0 256 256" fill="none" xmlns="http://www.w3.org/2000/svg">
<path d="M16 79.28V176.68C16 186.16 21.08 194.88 29.28 199.6L114.92 248.52C123.04 253.16 132.96 253.16 141.08 248.52L226.72 199.6C234.92 194.92 240 186.16 240 176.68V79.28C240 69.8 234.92 61.08 226.72 56.4L141.08 7.48C132.96 2.84 123.04 2.84 114.92 7.48L29.28 56.4C21.08 61.08 16 69.84 16 79.28Z" fill="#00A88E"/>
<path d="M184 64H72V68H184V64Z" fill="#4D4D4F"/>
<path d="M148 152C148 147.6 139.2 144 128 144C116.8 144 108 147.6 108 152C108 156.4 116.8 160 128 160C139.2 160 148 156.4 148 152Z" fill="#4D4D4F"/>
<path d="M184 68H72V152H184V68Z" fill="#6D6E71"/>
<path d="M176 76H80V144H176V76Z" fill="#44ADE2"/>
<path d="M184 188H136V192H184V188Z" fill="#6D6E71"/>
<path d="M184 168H136V188H184V168Z" fill="#4D4D4F"/>
<path d="M180 172H140V184H180V172Z" fill="#A5CF4C"/>
<path d="M128 86L110 96V116C110 128.4 128 134.4 128 134.4C128 134.4 146 128.4 146 116V96L128 86ZM142 116C142 123.6 131.6 128.4 128 130C124.4 128.4 114 123.6 114 116V98.4L128 90.4L142 98.4V116Z" fill="white"/>
<path d="M128 124H72V192H128V124Z" fill="#6D6E71"/>
<path d="M128 120H72V124H128V120Z" fill="#4D4D4F"/>
<path d="M124 128H76V184H124V128Z" fill="#F04E45"/>
<path d="M100 140L88 146.8V160C88 168.4 100 172.4 100 172.4C100 172.4 112 168.4 112 160V146.8L100 140ZM108 160C108 163.6 102.8 166.8 100 168C97.2 166.8 92 163.6 92 160V149.2L100 144.8L108 149.2V160Z" fill="white"/>
</svg>
