<svg xmlns="http://www.w3.org/2000/svg" xmlns:xlink="http://www.w3.org/1999/xlink" width="600" zoomAndPan="magnify" viewBox="0 0 450 149.999998" height="200" preserveAspectRatio="xMidYMid meet" version="1.0"><defs><clipPath id="10ebbeb55f"><path d="M 253.277344 76 L 407 76 L 407 150 L 253.277344 150 Z M 253.277344 76 " clip-rule="nonzero"/></clipPath><clipPath id="eb2a60d17b"><path d="M 253.277344 0 L 450 0 L 450 150 L 253.277344 150 Z M 253.277344 0 " clip-rule="nonzero"/></clipPath><clipPath id="2997867b3a"><path d="M 15.75 0 L 19 0 L 19 4 L 15.75 4 Z M 15.75 0 " clip-rule="nonzero"/></clipPath><clipPath id="eea863356c"><path d="M 43 0 L 46.5 0 L 46.5 4 L 43 4 Z M 43 0 " clip-rule="nonzero"/></clipPath><clipPath id="ba5f65b1dd"><path d="M 15.75 12 L 19 12 L 19 16 L 15.75 16 Z M 15.75 12 " clip-rule="nonzero"/></clipPath><clipPath id="cebbabeb0e"><path d="M 43 12 L 46.5 12 L 46.5 16 L 43 16 Z M 43 12 " clip-rule="nonzero"/></clipPath><clipPath id="3622b08d9b"><path d="M 15.75 23 L 19 23 L 19 27 L 15.75 27 Z M 15.75 23 " clip-rule="nonzero"/></clipPath><clipPath id="01675f6418"><path d="M 43 23 L 46.5 23 L 46.5 27 L 43 27 Z M 43 23 " clip-rule="nonzero"/></clipPath><clipPath id="b031f8e34c"><path d="M 15.75 34 L 19 34 L 19 38 L 15.75 38 Z M 15.75 34 " clip-rule="nonzero"/></clipPath><clipPath id="eba9cc06e6"><path d="M 43 34 L 46.5 34 L 46.5 38 L 43 38 Z M 43 34 " clip-rule="nonzero"/></clipPath></defs><rect x="-45" width="540" fill="#ffffff" y="-15" height="179.999997" fill-opacity="1"/><rect x="-45" width="540" fill="#ffffff" y="-15" height="179.999997" fill-opacity="1"/><g clip-path="url(#10ebbeb55f)"><path fill="#57c1e2" d="M 406.789062 153.320312 L 330.023438 76.574219 L 253.277344 153.320312 Z M 406.789062 153.320312 " fill-opacity="1" fill-rule="nonzero"/></g><g clip-path="url(#eb2a60d17b)"><path fill="#63cdf6" d="M 253.277344 -0.167969 L 253.277344 -49.132812 L 455.730469 153.320312 L 406.765625 153.320312 L 330.023438 76.574219 L 330.023438 76.550781 L 330 76.550781 Z M 253.277344 -0.167969 " fill-opacity="1" fill-rule="nonzero"/></g><path fill="#3bb3cd" d="M 330.046875 76.550781 L 318.425781 88.171875 L 406.789062 153.320312 Z M 330.046875 76.550781 " fill-opacity="1" fill-rule="nonzero"/><g clip-path="url(#2997867b3a)"><path fill="#5cc6d0" d="M 18.785156 2.46875 C 18.785156 2.671875 18.75 2.867188 18.671875 3.054688 C 18.59375 3.242188 18.484375 3.410156 18.34375 3.550781 C 18.199219 3.695312 18.035156 3.804688 17.847656 3.882812 C 17.664062 3.960938 17.46875 4 17.269531 4 C 17.066406 4 16.875 3.960938 16.6875 3.882812 C 16.5 3.804688 16.335938 3.695312 16.195312 3.550781 C 16.050781 3.410156 15.941406 3.242188 15.867188 3.054688 C 15.789062 2.867188 15.75 2.671875 15.75 2.46875 C 15.75 2.269531 15.789062 2.074219 15.867188 1.886719 C 15.941406 1.699219 16.050781 1.53125 16.195312 1.390625 C 16.335938 1.246094 16.5 1.136719 16.6875 1.058594 C 16.875 0.980469 17.066406 0.941406 17.269531 0.941406 C 17.46875 0.941406 17.664062 0.980469 17.847656 1.058594 C 18.035156 1.136719 18.199219 1.246094 18.34375 1.390625 C 18.484375 1.53125 18.59375 1.699219 18.671875 1.886719 C 18.75 2.074219 18.785156 2.269531 18.785156 2.46875 Z M 18.785156 2.46875 " fill-opacity="1" fill-rule="nonzero"/></g><path fill="#5cc6d0" d="M 32.644531 2.46875 C 32.644531 2.671875 32.605469 2.867188 32.527344 3.054688 C 32.449219 3.242188 32.339844 3.410156 32.199219 3.550781 C 32.054688 3.695312 31.890625 3.804688 31.707031 3.882812 C 31.519531 3.960938 31.328125 4 31.125 4 C 30.921875 4 30.730469 3.960938 30.542969 3.882812 C 30.359375 3.804688 30.195312 3.695312 30.050781 3.550781 C 29.910156 3.410156 29.800781 3.242188 29.722656 3.054688 C 29.644531 2.867188 29.605469 2.671875 29.605469 2.46875 C 29.605469 2.269531 29.644531 2.074219 29.722656 1.886719 C 29.800781 1.699219 29.910156 1.53125 30.050781 1.390625 C 30.195312 1.246094 30.359375 1.136719 30.542969 1.058594 C 30.730469 0.980469 30.921875 0.941406 31.125 0.941406 C 31.328125 0.941406 31.519531 0.980469 31.707031 1.058594 C 31.890625 1.136719 32.054688 1.246094 32.199219 1.390625 C 32.339844 1.53125 32.449219 1.699219 32.527344 1.886719 C 32.605469 2.074219 32.644531 2.269531 32.644531 2.46875 Z M 32.644531 2.46875 " fill-opacity="1" fill-rule="nonzero"/><g clip-path="url(#eea863356c)"><path fill="#5cc6d0" d="M 46.5 2.46875 C 46.5 2.671875 46.460938 2.867188 46.382812 3.054688 C 46.308594 3.242188 46.199219 3.410156 46.054688 3.550781 C 45.914062 3.695312 45.75 3.804688 45.5625 3.882812 C 45.375 3.960938 45.183594 4 44.980469 4 C 44.78125 4 44.585938 3.960938 44.402344 3.882812 C 44.214844 3.804688 44.050781 3.695312 43.90625 3.550781 C 43.765625 3.410156 43.65625 3.242188 43.578125 3.054688 C 43.503906 2.867188 43.464844 2.671875 43.464844 2.46875 C 43.464844 2.269531 43.503906 2.074219 43.578125 1.886719 C 43.65625 1.699219 43.765625 1.53125 43.90625 1.390625 C 44.050781 1.246094 44.214844 1.136719 44.402344 1.058594 C 44.585938 0.980469 44.78125 0.941406 44.980469 0.941406 C 45.183594 0.941406 45.375 0.980469 45.5625 1.058594 C 45.75 1.136719 45.914062 1.246094 46.054688 1.390625 C 46.199219 1.53125 46.308594 1.699219 46.382812 1.886719 C 46.460938 2.074219 46.5 2.269531 46.5 2.46875 Z M 46.5 2.46875 " fill-opacity="1" fill-rule="nonzero"/></g><g clip-path="url(#ba5f65b1dd)"><path fill="#94ccd1" d="M 18.785156 13.742188 C 18.785156 13.945312 18.75 14.140625 18.671875 14.328125 C 18.59375 14.515625 18.484375 14.679688 18.34375 14.824219 C 18.199219 14.964844 18.035156 15.078125 17.847656 15.15625 C 17.664062 15.230469 17.46875 15.269531 17.269531 15.269531 C 17.066406 15.269531 16.875 15.230469 16.6875 15.15625 C 16.5 15.078125 16.335938 14.964844 16.195312 14.824219 C 16.050781 14.679688 15.941406 14.515625 15.867188 14.328125 C 15.789062 14.140625 15.75 13.945312 15.75 13.742188 C 15.75 13.539062 15.789062 13.34375 15.867188 13.15625 C 15.941406 12.96875 16.050781 12.804688 16.195312 12.660156 C 16.335938 12.515625 16.5 12.40625 16.6875 12.328125 C 16.875 12.25 17.066406 12.210938 17.269531 12.210938 C 17.46875 12.210938 17.664062 12.25 17.847656 12.328125 C 18.035156 12.40625 18.199219 12.515625 18.34375 12.660156 C 18.484375 12.804688 18.59375 12.96875 18.671875 13.15625 C 18.75 13.34375 18.785156 13.539062 18.785156 13.742188 Z M 18.785156 13.742188 " fill-opacity="1" fill-rule="nonzero"/></g><path fill="#94ccd1" d="M 32.644531 13.742188 C 32.644531 13.945312 32.605469 14.140625 32.527344 14.328125 C 32.449219 14.515625 32.339844 14.679688 32.199219 14.824219 C 32.054688 14.964844 31.890625 15.078125 31.707031 15.15625 C 31.519531 15.230469 31.328125 15.269531 31.125 15.269531 C 30.921875 15.269531 30.730469 15.230469 30.542969 15.15625 C 30.359375 15.078125 30.195312 14.964844 30.050781 14.824219 C 29.910156 14.679688 29.800781 14.515625 29.722656 14.328125 C 29.644531 14.140625 29.605469 13.945312 29.605469 13.742188 C 29.605469 13.539062 29.644531 13.34375 29.722656 13.15625 C 29.800781 12.96875 29.910156 12.804688 30.050781 12.660156 C 30.195312 12.515625 30.359375 12.40625 30.542969 12.328125 C 30.730469 12.25 30.921875 12.210938 31.125 12.210938 C 31.328125 12.210938 31.519531 12.25 31.707031 12.328125 C 31.890625 12.40625 32.054688 12.515625 32.199219 12.660156 C 32.339844 12.804688 32.449219 12.96875 32.527344 13.15625 C 32.605469 13.34375 32.644531 13.539062 32.644531 13.742188 Z M 32.644531 13.742188 " fill-opacity="1" fill-rule="nonzero"/><g clip-path="url(#cebbabeb0e)"><path fill="#94ccd1" d="M 46.5 13.742188 C 46.5 13.945312 46.460938 14.140625 46.382812 14.328125 C 46.308594 14.515625 46.199219 14.679688 46.054688 14.824219 C 45.914062 14.964844 45.75 15.078125 45.5625 15.15625 C 45.375 15.230469 45.183594 15.269531 44.980469 15.269531 C 44.78125 15.269531 44.585938 15.230469 44.402344 15.15625 C 44.214844 15.078125 44.050781 14.964844 43.90625 14.824219 C 43.765625 14.679688 43.65625 14.515625 43.578125 14.328125 C 43.503906 14.140625 43.464844 13.945312 43.464844 13.742188 C 43.464844 13.539062 43.503906 13.34375 43.578125 13.15625 C 43.65625 12.96875 43.765625 12.804688 43.90625 12.660156 C 44.050781 12.515625 44.214844 12.40625 44.402344 12.328125 C 44.585938 12.25 44.78125 12.210938 44.980469 12.210938 C 45.183594 12.210938 45.375 12.25 45.5625 12.328125 C 45.75 12.40625 45.914062 12.515625 46.054688 12.660156 C 46.199219 12.804688 46.308594 12.96875 46.382812 13.15625 C 46.460938 13.34375 46.5 13.539062 46.5 13.742188 Z M 46.5 13.742188 " fill-opacity="1" fill-rule="nonzero"/></g><g clip-path="url(#3622b08d9b)"><path fill="#94ccd1" d="M 18.785156 25.019531 C 18.785156 25.222656 18.75 25.417969 18.671875 25.605469 C 18.59375 25.792969 18.484375 25.957031 18.34375 26.101562 C 18.199219 26.242188 18.035156 26.355469 17.847656 26.433594 C 17.664062 26.507812 17.46875 26.546875 17.269531 26.546875 C 17.066406 26.546875 16.875 26.507812 16.6875 26.433594 C 16.5 26.355469 16.335938 26.242188 16.195312 26.101562 C 16.050781 25.957031 15.941406 25.792969 15.867188 25.605469 C 15.789062 25.417969 15.75 25.222656 15.75 25.019531 C 15.75 24.816406 15.789062 24.621094 15.867188 24.433594 C 15.941406 24.246094 16.050781 24.082031 16.195312 23.9375 C 16.335938 23.792969 16.5 23.683594 16.6875 23.605469 C 16.875 23.527344 17.066406 23.488281 17.269531 23.488281 C 17.46875 23.488281 17.664062 23.527344 17.847656 23.605469 C 18.035156 23.683594 18.199219 23.792969 18.34375 23.9375 C 18.484375 24.082031 18.59375 24.246094 18.671875 24.433594 C 18.75 24.621094 18.785156 24.816406 18.785156 25.019531 Z M 18.785156 25.019531 " fill-opacity="1" fill-rule="nonzero"/></g><path fill="#94ccd1" d="M 32.644531 25.019531 C 32.644531 25.222656 32.605469 25.417969 32.527344 25.605469 C 32.449219 25.792969 32.339844 25.957031 32.199219 26.101562 C 32.054688 26.242188 31.890625 26.355469 31.707031 26.433594 C 31.519531 26.507812 31.328125 26.546875 31.125 26.546875 C 30.921875 26.546875 30.730469 26.507812 30.542969 26.433594 C 30.359375 26.355469 30.195312 26.242188 30.050781 26.101562 C 29.910156 25.957031 29.800781 25.792969 29.722656 25.605469 C 29.644531 25.417969 29.605469 25.222656 29.605469 25.019531 C 29.605469 24.816406 29.644531 24.621094 29.722656 24.433594 C 29.800781 24.246094 29.910156 24.082031 30.050781 23.9375 C 30.195312 23.792969 30.359375 23.683594 30.542969 23.605469 C 30.730469 23.527344 30.921875 23.488281 31.125 23.488281 C 31.328125 23.488281 31.519531 23.527344 31.707031 23.605469 C 31.890625 23.683594 32.054688 23.792969 32.199219 23.9375 C 32.339844 24.082031 32.449219 24.246094 32.527344 24.433594 C 32.605469 24.621094 32.644531 24.816406 32.644531 25.019531 Z M 32.644531 25.019531 " fill-opacity="1" fill-rule="nonzero"/><g clip-path="url(#01675f6418)"><path fill="#94ccd1" d="M 46.5 25.019531 C 46.5 25.222656 46.460938 25.417969 46.382812 25.605469 C 46.308594 25.792969 46.199219 25.957031 46.054688 26.101562 C 45.914062 26.242188 45.75 26.355469 45.5625 26.433594 C 45.375 26.507812 45.183594 26.546875 44.980469 26.546875 C 44.78125 26.546875 44.585938 26.507812 44.402344 26.433594 C 44.214844 26.355469 44.050781 26.242188 43.90625 26.101562 C 43.765625 25.957031 43.65625 25.792969 43.578125 25.605469 C 43.503906 25.417969 43.464844 25.222656 43.464844 25.019531 C 43.464844 24.816406 43.503906 24.621094 43.578125 24.433594 C 43.65625 24.246094 43.765625 24.082031 43.90625 23.9375 C 44.050781 23.792969 44.214844 23.683594 44.402344 23.605469 C 44.585938 23.527344 44.78125 23.488281 44.980469 23.488281 C 45.183594 23.488281 45.375 23.527344 45.5625 23.605469 C 45.75 23.683594 45.914062 23.792969 46.054688 23.9375 C 46.199219 24.082031 46.308594 24.246094 46.382812 24.433594 C 46.460938 24.621094 46.5 24.816406 46.5 25.019531 Z M 46.5 25.019531 " fill-opacity="1" fill-rule="nonzero"/></g><g clip-path="url(#b031f8e34c)"><path fill="#94ccd1" d="M 18.785156 36.289062 C 18.785156 36.492188 18.75 36.6875 18.671875 36.875 C 18.59375 37.0625 18.484375 37.226562 18.34375 37.371094 C 18.199219 37.515625 18.035156 37.625 17.847656 37.703125 C 17.664062 37.78125 17.46875 37.820312 17.269531 37.820312 C 17.066406 37.820312 16.875 37.78125 16.6875 37.703125 C 16.5 37.625 16.335938 37.515625 16.195312 37.371094 C 16.050781 37.226562 15.941406 37.0625 15.867188 36.875 C 15.789062 36.6875 15.75 36.492188 15.75 36.289062 C 15.75 36.085938 15.789062 35.890625 15.867188 35.703125 C 15.941406 35.515625 16.050781 35.351562 16.195312 35.207031 C 16.335938 35.066406 16.5 34.953125 16.6875 34.878906 C 16.875 34.800781 17.066406 34.761719 17.269531 34.761719 C 17.46875 34.761719 17.664062 34.800781 17.847656 34.878906 C 18.035156 34.953125 18.199219 35.066406 18.34375 35.207031 C 18.484375 35.351562 18.59375 35.515625 18.671875 35.703125 C 18.75 35.890625 18.785156 36.085938 18.785156 36.289062 Z M 18.785156 36.289062 " fill-opacity="1" fill-rule="nonzero"/></g><path fill="#94ccd1" d="M 32.644531 36.289062 C 32.644531 36.492188 32.605469 36.6875 32.527344 36.875 C 32.449219 37.0625 32.339844 37.226562 32.199219 37.371094 C 32.054688 37.515625 31.890625 37.625 31.707031 37.703125 C 31.519531 37.78125 31.328125 37.820312 31.125 37.820312 C 30.921875 37.820312 30.730469 37.78125 30.542969 37.703125 C 30.359375 37.625 30.195312 37.515625 30.050781 37.371094 C 29.910156 37.226562 29.800781 37.0625 29.722656 36.875 C 29.644531 36.6875 29.605469 36.492188 29.605469 36.289062 C 29.605469 36.085938 29.644531 35.890625 29.722656 35.703125 C 29.800781 35.515625 29.910156 35.351562 30.050781 35.207031 C 30.195312 35.066406 30.359375 34.953125 30.542969 34.878906 C 30.730469 34.800781 30.921875 34.761719 31.125 34.761719 C 31.328125 34.761719 31.519531 34.800781 31.707031 34.878906 C 31.890625 34.953125 32.054688 35.066406 32.199219 35.207031 C 32.339844 35.351562 32.449219 35.515625 32.527344 35.703125 C 32.605469 35.890625 32.644531 36.085938 32.644531 36.289062 Z M 32.644531 36.289062 " fill-opacity="1" fill-rule="nonzero"/><g clip-path="url(#eba9cc06e6)"><path fill="#94ccd1" d="M 46.5 36.289062 C 46.5 36.492188 46.460938 36.6875 46.382812 36.875 C 46.308594 37.0625 46.199219 37.226562 46.054688 37.371094 C 45.914062 37.515625 45.75 37.625 45.5625 37.703125 C 45.375 37.78125 45.183594 37.820312 44.980469 37.820312 C 44.78125 37.820312 44.585938 37.78125 44.402344 37.703125 C 44.214844 37.625 44.050781 37.515625 43.90625 37.371094 C 43.765625 37.226562 43.65625 37.0625 43.578125 36.875 C 43.503906 36.6875 43.464844 36.492188 43.464844 36.289062 C 43.464844 36.085938 43.503906 35.890625 43.578125 35.703125 C 43.65625 35.515625 43.765625 35.351562 43.90625 35.207031 C 44.050781 35.066406 44.214844 34.953125 44.402344 34.878906 C 44.585938 34.800781 44.78125 34.761719 44.980469 34.761719 C 45.183594 34.761719 45.375 34.800781 45.5625 34.878906 C 45.75 34.953125 45.914062 35.066406 46.054688 35.207031 C 46.199219 35.351562 46.308594 35.515625 46.382812 35.703125 C 46.460938 35.890625 46.5 36.085938 46.5 36.289062 Z M 46.5 36.289062 " fill-opacity="1" fill-rule="nonzero"/></g></svg>