<svg id="icon-20-user" xmlns="http://www.w3.org/2000/svg" width="20" height="20.001" viewBox="0 0 20 20.001">
  <rect id="Rect치ngulo_17258" data-name="Rect치ngulo 17258" width="20" height="20" fill="#e1ebed" opacity="0"/>
  <g id="icon-20-user-2" data-name="icon-20-user" transform="translate(-284 -228)">
    <g id="Elipse_347" data-name="Elipse 347" transform="translate(288.445 228)" fill="none" stroke="#ffffff" stroke-width="0.8">
      <circle cx="5.556" cy="5.556" r="5.556" stroke="none"/>
      <circle cx="5.556" cy="5.556" r="5.156" fill="none"/>
    </g>
    <g id="Sustracci칩n_54" data-name="Sustracci칩n 54" transform="translate(284 239.979)" fill="none" stroke-linecap="round" stroke-linejoin="round">
      <path d="M20,8.022H0A7.228,7.228,0,0,1,2.946,2.051,11.836,11.836,0,0,1,10,0a11.835,11.835,0,0,1,7.054,2.051A7.226,7.226,0,0,1,20,8.021Z" stroke="none"/>
      <path d="M 19.15472030639648 7.222097396850586 C 18.95152854919434 5.36450719833374 18.06954193115234 3.809768199920654 16.57481002807617 2.691907405853271 C 14.94361019134521 1.471887350082397 12.60871982574463 0.7999973893165588 10.00024032592773 0.7999973893165588 C 7.391839981079102 0.7999973893165588 5.056849956512451 1.47189736366272 3.425400018692017 2.691937446594238 C 1.931050419807434 3.809459447860718 1.049042701721191 5.364361763000488 0.8454501032829285 7.222097396850586 L 19.15472030639648 7.222097396850586 M 20 8.022097587585449 L 0 8.022097587585449 C 0.0136700002476573 5.546507358551025 1.032719969749451 3.482297420501709 2.946290016174316 2.051267385482788 C 4.715089797973633 0.7285173535346985 7.22022008895874 -2.636718818394002e-06 10.00024032592773 -2.636718818394002e-06 C 12.78026962280273 -2.636718818394002e-06 15.285400390625 0.7285173535346985 17.0539608001709 2.051267385482788 C 18.96776962280273 3.482547283172607 19.98657035827637 5.546757221221924 20 8.020997047424316 L 20 8.022097587585449 Z" stroke="none" fill="#ffffff"/>
    </g>
  </g>
</svg>
