<?xml version="1.0" encoding="utf-8"?>
<!-- Generator: Adobe Illustrator 24.3.0, SVG Export Plug-In . SVG Version: 6.00 Build 0)  -->
<svg version="1.1" id="Layer_1" xmlns="http://www.w3.org/2000/svg" xmlns:xlink="http://www.w3.org/1999/xlink" x="0px" y="0px"
	 viewBox="0 0 512 512" style="enable-background:new 0 0 512 512;" xml:space="preserve">
<style type="text/css">
	.st0{fill:#1499F3;}
	.st1{fill:#FFFFFF;}
	.st2{clip-path:url(#SVGID_2_);fill:#FFFFFF;}
	.st3{clip-path:url(#SVGID_4_);fill:#FFFFFF;}
	.st4{clip-path:url(#SVGID_6_);fill:#0DA7FE;}
	.st5{clip-path:url(#SVGID_8_);fill:#0DA7FE;}
	.st6{clip-path:url(#SVGID_10_);fill:#FFFFFF;}
	.st7{clip-path:url(#SVGID_12_);fill:#FFFFFF;}
	.st8{clip-path:url(#SVGID_14_);fill:#FFFFFF;}
	.st9{clip-path:url(#SVGID_16_);fill:#1A67FD;}
	.st10{clip-path:url(#SVGID_18_);fill:#1A67FD;}
	.st11{clip-path:url(#SVGID_20_);fill:#FFFFFF;}
	.st12{clip-path:url(#SVGID_22_);fill:#FFFFFF;}
	.st13{clip-path:url(#SVGID_24_);fill:#FFFFFF;}
	.st14{clip-path:url(#SVGID_26_);fill:#FFFFFF;}
	.st15{clip-path:url(#SVGID_28_);fill:#FFFFFF;}
	.st16{clip-path:url(#SVGID_30_);fill:#0DA7FE;}
	.st17{clip-path:url(#SVGID_32_);fill:#0DA7FE;}
	.st18{clip-path:url(#SVGID_34_);fill:#0DA7FE;}
	.st19{clip-path:url(#SVGID_36_);fill:#0DA7FE;}
	.st20{clip-path:url(#SVGID_38_);fill:#0DA7FE;}
	.st21{clip-path:url(#SVGID_40_);fill:#0DA7FE;}
	.st22{clip-path:url(#SVGID_42_);fill:#FFFFFF;}
	.st23{clip-path:url(#SVGID_44_);fill:#FFFFFF;}
	.st24{clip-path:url(#SVGID_46_);fill:#FFFFFF;}
	.st25{clip-path:url(#SVGID_48_);fill:#05BBFF;}
	.st26{clip-path:url(#SVGID_50_);fill:#05BBFF;}
	.st27{clip-path:url(#SVGID_52_);fill:#05BBFF;}
	.st28{clip-path:url(#SVGID_54_);fill:#05BBFF;}
	.st29{clip-path:url(#SVGID_56_);fill:#05BBFF;}
	.st30{clip-path:url(#SVGID_58_);fill:#05BBFF;}
	.st31{clip-path:url(#SVGID_60_);fill:#05BBFF;}
	.st32{clip-path:url(#SVGID_62_);fill:#05BBFF;}
	.st33{clip-path:url(#SVGID_64_);fill:#05BBFF;}
	.st34{clip-path:url(#SVGID_66_);fill:#FFFFFF;}
	.st35{clip-path:url(#SVGID_68_);fill:#FFFFFF;}
	.st36{clip-path:url(#SVGID_70_);fill:#00C9FF;}
	.st37{clip-path:url(#SVGID_72_);fill:#00C9FF;}
	.st38{clip-path:url(#SVGID_74_);fill:#00C9FF;}
	.st39{clip-path:url(#SVGID_76_);fill:#FFFFFF;}
	.st40{clip-path:url(#SVGID_78_);fill:#FFFFFF;}
	.st41{clip-path:url(#SVGID_80_);fill:#FFFFFF;}
	.st42{clip-path:url(#SVGID_82_);fill:#FFFFFF;}
	.st43{clip-path:url(#SVGID_84_);fill:#FFFFFF;}
	.st44{clip-path:url(#SVGID_86_);fill:#FFFFFF;}
	.st45{clip-path:url(#SVGID_88_);fill:#FFFFFF;}
	.st46{clip-path:url(#SVGID_90_);fill:#1A86FD;}
	.st47{clip-path:url(#SVGID_92_);fill:#1A86FD;}
	.st48{clip-path:url(#SVGID_94_);fill:#1A86FD;}
	.st49{clip-path:url(#SVGID_96_);fill:#1A86FD;}
	.st50{clip-path:url(#SVGID_98_);fill:#1A86FD;}
	.st51{clip-path:url(#SVGID_100_);fill:#1A86FD;}
	.st52{clip-path:url(#SVGID_102_);fill:#FFFFFF;}
	.st53{clip-path:url(#SVGID_104_);fill:#FFFFFF;}
	.st54{clip-path:url(#SVGID_106_);fill:#FFFFFF;}
	.st55{clip-path:url(#SVGID_108_);fill:#FFFFFF;}
	.st56{clip-path:url(#SVGID_110_);fill:#FFFFFF;}
	.st57{clip-path:url(#SVGID_112_);fill:#FFFFFF;}
	.st58{clip-path:url(#SVGID_114_);fill:#FFFFFF;}
	.st59{clip-path:url(#SVGID_116_);fill:#FFFFFF;}
	.st60{clip-path:url(#SVGID_118_);fill:#FFFFFF;}
	.st61{clip-path:url(#SVGID_120_);fill:#FFFFFF;}
	.st62{clip-path:url(#SVGID_122_);fill:#FFFFFF;}
	.st63{clip-path:url(#SVGID_124_);fill:#FFFFFF;}
	.st64{clip-path:url(#SVGID_126_);fill:#FFFFFF;}
	.st65{clip-path:url(#SVGID_128_);fill:#FFFFFF;}
	.st66{clip-path:url(#SVGID_130_);fill:#FFFFFF;}
	.st67{clip-path:url(#SVGID_132_);fill:#FFFFFF;}
	.st68{clip-path:url(#SVGID_134_);fill:#05BBFF;}
	.st69{clip-path:url(#SVGID_136_);fill:#05BBFF;}
	.st70{clip-path:url(#SVGID_138_);fill:#05BBFF;}
	.st71{clip-path:url(#SVGID_140_);fill:#05BBFF;}
	.st72{clip-path:url(#SVGID_142_);fill:#05BBFF;}
	.st73{clip-path:url(#SVGID_144_);fill:#05BBFF;}
	.st74{clip-path:url(#SVGID_146_);fill:#05BBFF;}
	.st75{clip-path:url(#SVGID_148_);fill:#05BBFF;}
	.st76{fill:#0D98FE;}
	.st77{fill:#1A76FD;}
	.st78{fill:#D6FFFF;}
</style>
<g id="XMLID_21_">
	<rect id="XMLID_59_" y="160.75" class="st0" width="512" height="190.49"/>
	<path id="XMLID_88_" class="st1" d="M473.28,241.41l-17.11,49.8c-4.91,14.59-9.96,19.78-22.44,19.78c-4.63,0-8.56-0.7-10.94-1.26
		l1.68-13.89c1.68,0.28,4.35,0.28,6.87,0.28c2.95,0,4.63-0.98,5.61-4.35l0.28-1.26l-17.11-49.38h19.78l6.59,31h0.28l6.59-31
		C453.79,241.41,473.28,241.41,473.28,241.41z M299.34,291.63h-15.57l-2.24-5.61c-2.95,4.35-7.86,6.87-14.59,6.87
		c-10.94,0-16.55-6.31-16.55-16.55v-34.93h19.64v31c0,3.65,0.98,5.33,3.93,5.33c2.24,0,4.63-1.26,5.61-2.67v-33.67h19.78V291.63z
		 M416.89,291.63h-16.83l-1.26-5.61c-2.24,3.37-7.29,6.87-14.59,6.87c-13.19,0-20.2-9.26-20.2-26.09c0-18.1,10.52-26.37,21.74-26.37
		c4.35,0,8.56,1.68,11.92,4.35V223.6h19.5C416.89,223.6,416.89,291.63,416.89,291.63z M397.4,258.24c-1.26-1.68-3.65-2.67-6.31-2.67
		c-4.35,0-6.59,3.65-6.59,10.94c0,6.59,1.68,11.22,6.59,11.22c2.67,0,4.91-0.98,6.31-2.24V258.24z M358.4,291.63h-16.83l-1.26-5.61
		c-2.24,3.37-7.29,6.87-14.59,6.87c-13.19,0-20.2-9.26-20.2-26.09c0-18.1,10.52-26.37,21.74-26.37c4.35,0,8.56,1.68,11.92,4.35
		V223.6h19.5C358.4,223.6,358.4,291.63,358.4,291.63z M339.04,258.24c-1.26-1.68-3.65-2.67-6.31-2.67c-4.35,0-6.59,3.65-6.59,10.94
		c0,6.59,1.68,11.22,6.59,11.22c2.67,0,4.91-0.98,6.31-2.24V258.24z M216.86,291.35h-28.34v-67.61h29.74
		c13.47,0,24.41,5.33,24.41,17.81c0,6.87-3.65,12.91-10.94,14.59c9.26,1.68,13.47,8.98,13.47,15.85
		C245.34,287.28,233.7,291.35,216.86,291.35z M209.01,263.57v12.2h8.98c4.35,0,6.87-2.67,6.87-6.31s-2.95-5.89-7.29-5.89
		L209.01,263.57L209.01,263.57z M216.58,239.17h-7.57v10.24h7.29c3.93,0,6.87-1.26,6.87-5.33
		C223.18,240.43,220.79,239.17,216.58,239.17z"/>
	<path id="XMLID_94_" class="st1" d="M101.42,325.44c-2.81,0-5.75-0.7-8.28-2.24l-46.15-26.37c-5.05-2.95-8.28-8.56-8.28-14.45
		v-52.74c0-5.89,3.23-11.5,8.28-14.45l46.29-26.37c5.05-2.95,11.5-2.95,16.55,0l46.15,26.37c5.05,2.95,8.28,8.56,8.28,14.45v52.74
		c0,5.89-3.23,11.5-8.28,14.45l-46.29,26.37C107.17,324.73,104.22,325.44,101.42,325.44 M101.42,193.16c-1.68,0-3.51,0.42-4.91,1.26
		l-46.29,26.37c-2.95,1.68-4.91,5.19-4.91,8.7v52.74c0,3.65,1.82,6.87,4.91,8.7l46.15,26.37c2.95,1.68,7.01,1.68,9.96,0l46.29-26.37
		c2.95-1.68,4.91-5.19,4.91-8.7v-52.74c0-3.51-1.96-7.01-4.91-8.7l-46.15-26.37C104.92,193.58,103.1,193.16,101.42,193.16"/>
	<g id="XMLID_97_">
		<g>
			<defs>
				<polyline id="SVGID_1_" points="45.31,193.44 157.53,193.44 157.53,318.56 45.31,318.56 45.31,193.44 				"/>
			</defs>
			<clipPath id="SVGID_2_">
				<use xlink:href="#SVGID_1_"  style="overflow:visible;"/>
			</clipPath>
			<path id="XMLID_99_" class="st2" d="M140.98,214.48l11.5,6.59c1.12,0.56,1.96,1.4,2.81,2.38l0,0c-0.7-0.98-1.68-1.68-2.67-2.24
				L140.98,214.48"/>
		</g>
		<g>
			<defs>
				<polyline id="SVGID_3_" points="45.31,193.44 157.53,193.44 157.53,318.56 45.31,318.56 45.31,193.44 				"/>
			</defs>
			<clipPath id="SVGID_4_">
				<use xlink:href="#SVGID_3_"  style="overflow:visible;"/>
			</clipPath>
			<path id="XMLID_100_" class="st3" d="M155.28,223.32L155.28,223.32c0.7,0.84,1.12,1.68,1.54,2.52l0,0
				C156.41,225,155.84,224.02,155.28,223.32"/>
		</g>
		<g>
			<defs>
				<polyline id="SVGID_5_" points="45.31,193.44 157.53,193.44 157.53,318.56 45.31,318.56 45.31,193.44 				"/>
			</defs>
			<clipPath id="SVGID_6_">
				<use xlink:href="#SVGID_5_"  style="overflow:visible;"/>
			</clipPath>
			<path id="XMLID_117_" class="st4" d="M75.89,259.65l24.13,58.92c0.14,0,0.28,0,0.42,0l-23.71-58.63L75.89,259.65 M75.33,256.84
				l-0.28,0.84l0.28,0.84l0.28-0.84L75.33,256.84 M45.59,227.1c-0.28,0.84-0.28,1.68-0.28,2.52v52.74c0,0.14,0,0.28,0,0.42
				s0,0.42,0,0.56L45.59,227.1 M101.84,193.44l0.14,0.14l54.85,32.26c-0.42-0.84-0.84-1.68-1.4-2.52c-0.7-0.98-1.68-1.68-2.81-2.38
				l-11.5-6.59l-34.65-19.78C104.92,193.86,103.38,193.44,101.84,193.44 M101.28,193.44c-1.68,0-3.37,0.42-4.77,1.26l-46.15,26.37
				c-1.12,0.56-1.96,1.4-2.81,2.38c-0.42,0.56-0.84,1.26-1.26,2.1L101.28,193.44 M101.56,193.44L101.56,193.44h0.14H101.56
				 M101.42,193.44L101.42,193.44l-25.81,62.84l0.56,0.28l25.39-62.84L101.42,193.44L101.42,193.44"/>
		</g>
		<g>
			<defs>
				<polyline id="SVGID_7_" points="45.31,193.44 157.53,193.44 157.53,318.56 45.31,318.56 45.31,193.44 				"/>
			</defs>
			<clipPath id="SVGID_8_">
				<use xlink:href="#SVGID_7_"  style="overflow:visible;"/>
			</clipPath>
			<path id="XMLID_135_" class="st5" d="M45.59,227.1c-0.28,0.84-0.28,1.68-0.28,2.52v52.74c0,0.14,0,0.28,0,0.42
				c0-0.14,0-0.28,0-0.42v-52.74C45.31,228.79,45.45,227.95,45.59,227.1L45.59,227.1 M47.41,223.32c-0.56,0.56-0.98,1.26-1.26,2.1
				l0,0C46.57,224.72,46.99,224.02,47.41,223.32 M155.28,223.32c0.56,0.7,1.12,1.68,1.4,2.52l0,0
				C156.41,225,155.84,224.16,155.28,223.32"/>
		</g>
	</g>
	<polyline id="XMLID_95_" class="st1" points="101.42,321.93 101.42,322.07 101.42,321.93 	"/>
	<g id="XMLID_153_">
		<g>
			<defs>
				<polyline id="SVGID_9_" points="45.31,256 101.42,256 101.42,321.93 45.31,321.93 45.31,256 				"/>
			</defs>
			<clipPath id="SVGID_10_">
				<use xlink:href="#SVGID_9_"  style="overflow:visible;"/>
			</clipPath>
			<polyline id="XMLID_154_" class="st6" points="45.31,288.96 45.31,288.96 45.31,288.96 45.31,288.96 			"/>
		</g>
		<g>
			<defs>
				<polyline id="SVGID_11_" points="45.31,256 101.42,256 101.42,321.93 45.31,321.93 45.31,256 				"/>
			</defs>
			<clipPath id="SVGID_12_">
				<use xlink:href="#SVGID_11_"  style="overflow:visible;"/>
			</clipPath>
			<path id="XMLID_156_" class="st7" d="M47.97,289.24L47.97,289.24c0.56,0.7,1.4,1.4,2.24,1.82l46.15,26.37
				c1.12,0.7,2.38,0.98,3.65,1.26l-0.14-0.14c-1.26-0.14-2.38-0.56-3.51-1.12l-46.15-26.37C49.38,290.51,48.68,289.95,47.97,289.24"
				/>
		</g>
		<g>
			<defs>
				<polyline id="SVGID_13_" points="45.31,256 101.42,256 101.42,321.93 45.31,321.93 45.31,256 				"/>
			</defs>
			<clipPath id="SVGID_14_">
				<use xlink:href="#SVGID_13_"  style="overflow:visible;"/>
			</clipPath>
			<path id="XMLID_186_" class="st8" d="M47.97,289.24l-0.7,0.84l54.15,31.84l0,0l-1.4-3.37c-1.26-0.14-2.52-0.56-3.65-1.26
				l-46.15-26.23C49.38,290.65,48.68,289.95,47.97,289.24"/>
		</g>
		<g>
			<defs>
				<polyline id="SVGID_15_" points="45.31,256 101.42,256 101.42,321.93 45.31,321.93 45.31,256 				"/>
			</defs>
			<clipPath id="SVGID_16_">
				<use xlink:href="#SVGID_15_"  style="overflow:visible;"/>
			</clipPath>
			<path id="XMLID_187_" class="st9" d="M47.97,289.24L47.97,289.24c0.7,0.7,1.4,1.26,2.24,1.68l46.15,26.37
				c1.12,0.56,2.24,0.98,3.51,1.12l0,0c-1.26-0.14-2.38-0.56-3.51-1.12l-46.15-26.37C49.38,290.51,48.68,289.95,47.97,289.24"/>
		</g>
		<g>
			<defs>
				<polyline id="SVGID_17_" points="45.31,256 101.42,256 101.42,321.93 45.31,321.93 45.31,256 				"/>
			</defs>
			<clipPath id="SVGID_18_">
				<use xlink:href="#SVGID_17_"  style="overflow:visible;"/>
			</clipPath>
			<path id="XMLID_188_" class="st10" d="M75.05,257.68l-0.42,1.12l0.42,0.56l-26.93,30.02c0.7,0.7,1.4,1.26,2.24,1.68l46.15,26.37
				c1.12,0.56,2.24,0.98,3.51,1.12l-24.13-58.92l-0.84-0.28l0.28-0.84L75.05,257.68"/>
		</g>
	</g>
	<g id="XMLID_192_">
		<g>
			<defs>
				<polyline id="SVGID_19_" points="45.31,226.26 75.05,226.26 75.05,292.33 45.31,292.33 45.31,226.26 				"/>
			</defs>
			<clipPath id="SVGID_20_">
				<use xlink:href="#SVGID_19_"  style="overflow:visible;"/>
			</clipPath>
			<path id="XMLID_193_" class="st11" d="M45.59,226.4v0.7c0-0.14,0.14-0.42,0.14-0.56L45.59,226.4"/>
		</g>
		<g>
			<defs>
				<polyline id="SVGID_21_" points="45.31,226.26 75.05,226.26 75.05,292.33 45.31,292.33 45.31,226.26 				"/>
			</defs>
			<clipPath id="SVGID_22_">
				<use xlink:href="#SVGID_21_"  style="overflow:visible;"/>
			</clipPath>
			<path id="XMLID_194_" class="st12" d="M45.31,283.35L45.31,283.35c0.14,1.54,0.56,2.95,1.26,4.07l0,0
				C46.01,286.16,45.45,284.76,45.31,283.35"/>
		</g>
		<g>
			<defs>
				<polyline id="SVGID_23_" points="45.31,226.26 75.05,226.26 75.05,292.33 45.31,292.33 45.31,226.26 				"/>
			</defs>
			<clipPath id="SVGID_24_">
				<use xlink:href="#SVGID_23_"  style="overflow:visible;"/>
			</clipPath>
			<path id="XMLID_197_" class="st13" d="M45.31,288.96v3.23l1.96-2.1L45.31,288.96 M45.31,283.35v5.61l1.26-1.54
				C45.87,286.3,45.45,284.9,45.31,283.35"/>
		</g>
		<g>
			<defs>
				<polyline id="SVGID_25_" points="45.31,226.26 75.05,226.26 75.05,292.33 45.31,292.33 45.31,226.26 				"/>
			</defs>
			<clipPath id="SVGID_26_">
				<use xlink:href="#SVGID_25_"  style="overflow:visible;"/>
			</clipPath>
			<path id="XMLID_198_" class="st14" d="M46.71,287.42L46.71,287.42c0.42,0.7,0.84,1.26,1.26,1.82l0,0
				C47.55,288.68,46.99,288.12,46.71,287.42"/>
		</g>
		<g>
			<defs>
				<polyline id="SVGID_27_" points="45.31,226.26 75.05,226.26 75.05,292.33 45.31,292.33 45.31,226.26 				"/>
			</defs>
			<clipPath id="SVGID_28_">
				<use xlink:href="#SVGID_27_"  style="overflow:visible;"/>
			</clipPath>
			<path id="XMLID_199_" class="st15" d="M46.57,287.42l-1.26,1.54l0,0l1.96,1.12l0.7-0.84C47.41,288.68,46.99,288.12,46.57,287.42"
				/>
		</g>
		<g>
			<defs>
				<polyline id="SVGID_29_" points="45.31,226.26 75.05,226.26 75.05,292.33 45.31,292.33 45.31,226.26 				"/>
			</defs>
			<clipPath id="SVGID_30_">
				<use xlink:href="#SVGID_29_"  style="overflow:visible;"/>
			</clipPath>
			<path id="XMLID_202_" class="st16" d="M45.31,283.35L45.31,283.35c0.14,1.54,0.56,2.95,1.26,4.07l0,0
				C46.01,286.16,45.45,284.76,45.31,283.35"/>
		</g>
		<g>
			<defs>
				<polyline id="SVGID_31_" points="45.31,226.26 75.05,226.26 75.05,292.33 45.31,292.33 45.31,226.26 				"/>
			</defs>
			<clipPath id="SVGID_32_">
				<use xlink:href="#SVGID_31_"  style="overflow:visible;"/>
			</clipPath>
			<path id="XMLID_287_" class="st17" d="M45.73,226.54c0,0.14-0.14,0.42-0.14,0.56l0,0C45.73,226.82,45.73,226.68,45.73,226.54
				L45.73,226.54"/>
		</g>
		<g>
			<defs>
				<polyline id="SVGID_33_" points="45.31,226.26 75.05,226.26 75.05,292.33 45.31,292.33 45.31,226.26 				"/>
			</defs>
			<clipPath id="SVGID_34_">
				<use xlink:href="#SVGID_33_"  style="overflow:visible;"/>
			</clipPath>
			<path id="XMLID_288_" class="st18" d="M45.73,226.54c0,0.14-0.14,0.42-0.14,0.56l-0.28,56.25c0.14,1.54,0.56,2.81,1.26,4.07
				l26.23-29.74L45.73,226.54"/>
		</g>
		<g>
			<defs>
				<polyline id="SVGID_35_" points="45.31,226.26 75.05,226.26 75.05,292.33 45.31,292.33 45.31,226.26 				"/>
			</defs>
			<clipPath id="SVGID_36_">
				<use xlink:href="#SVGID_35_"  style="overflow:visible;"/>
			</clipPath>
			<path id="XMLID_289_" class="st19" d="M45.73,226.54c0,0.14-0.14,0.42-0.14,0.56l0,0C45.73,226.96,45.73,226.68,45.73,226.54
				L45.73,226.54"/>
		</g>
		<g>
			<defs>
				<polyline id="SVGID_37_" points="45.31,226.26 75.05,226.26 75.05,292.33 45.31,292.33 45.31,226.26 				"/>
			</defs>
			<clipPath id="SVGID_38_">
				<use xlink:href="#SVGID_37_"  style="overflow:visible;"/>
			</clipPath>
			<path id="XMLID_290_" class="st20" d="M46.71,287.42L46.71,287.42c0.42,0.7,0.84,1.26,1.4,1.82l0,0
				C47.55,288.68,46.99,288.12,46.71,287.42"/>
		</g>
		<g>
			<defs>
				<polyline id="SVGID_39_" points="45.31,226.26 75.05,226.26 75.05,292.33 45.31,292.33 45.31,226.26 				"/>
			</defs>
			<clipPath id="SVGID_40_">
				<use xlink:href="#SVGID_39_"  style="overflow:visible;"/>
			</clipPath>
			<path id="XMLID_291_" class="st21" d="M72.94,257.68l-26.23,29.74c0.42,0.7,0.84,1.26,1.4,1.82l26.93-30.02l-0.42-0.56
				l-0.14,0.56L72.94,257.68"/>
		</g>
	</g>
	<g id="XMLID_293_">
		<g>
			<defs>
				<polyline id="SVGID_41_" points="45.31,193.3 101.42,193.3 101.42,259.37 45.31,259.37 45.31,193.3 				"/>
			</defs>
			<clipPath id="SVGID_42_">
				<use xlink:href="#SVGID_41_"  style="overflow:visible;"/>
			</clipPath>
			<polyline id="XMLID_294_" class="st22" points="101.42,193.3 101.28,193.44 101.42,193.44 101.42,193.3 101.42,193.3 			"/>
		</g>
		<g>
			<defs>
				<polyline id="SVGID_43_" points="45.31,193.3 101.42,193.3 101.42,259.37 45.31,259.37 45.31,193.3 				"/>
			</defs>
			<clipPath id="SVGID_44_">
				<use xlink:href="#SVGID_43_"  style="overflow:visible;"/>
			</clipPath>
			<path id="XMLID_295_" class="st23" d="M46.15,225.42l-0.84,0.56l0.28,0.42l0,0l0.14,0.14C45.87,226.12,46.01,225.84,46.15,225.42
				"/>
		</g>
		<g>
			<defs>
				<polyline id="SVGID_45_" points="45.31,193.3 101.42,193.3 101.42,259.37 45.31,259.37 45.31,193.3 				"/>
			</defs>
			<clipPath id="SVGID_46_">
				<use xlink:href="#SVGID_45_"  style="overflow:visible;"/>
			</clipPath>
			<polyline id="XMLID_296_" class="st24" points="45.59,226.26 45.59,226.4 45.73,226.54 45.73,226.54 45.59,226.26 			"/>
		</g>
		<g>
			<defs>
				<polyline id="SVGID_47_" points="45.31,193.3 101.42,193.3 101.42,259.37 45.31,259.37 45.31,193.3 				"/>
			</defs>
			<clipPath id="SVGID_48_">
				<use xlink:href="#SVGID_47_"  style="overflow:visible;"/>
			</clipPath>
			<polyline id="XMLID_297_" class="st25" points="101.42,193.44 101.28,193.44 101.28,193.44 101.42,193.44 101.42,193.44 			"/>
		</g>
		<g>
			<defs>
				<polyline id="SVGID_49_" points="45.31,193.3 101.42,193.3 101.42,259.37 45.31,259.37 45.31,193.3 				"/>
			</defs>
			<clipPath id="SVGID_50_">
				<use xlink:href="#SVGID_49_"  style="overflow:visible;"/>
			</clipPath>
			<path id="XMLID_298_" class="st26" d="M46.15,225.42L46.15,225.42c-0.14,0.28-0.28,0.7-0.42,0.98l0,0
				C45.87,226.12,46.01,225.84,46.15,225.42"/>
		</g>
		<g>
			<defs>
				<polyline id="SVGID_51_" points="45.31,193.3 101.42,193.3 101.42,259.37 45.31,259.37 45.31,193.3 				"/>
			</defs>
			<clipPath id="SVGID_52_">
				<use xlink:href="#SVGID_51_"  style="overflow:visible;"/>
			</clipPath>
			<path id="XMLID_299_" class="st27" d="M101.42,193.44L101.42,193.44l-55.13,31.98c-0.14,0.42-0.28,0.7-0.42,1.12l27.35,30.72
				l1.12-1.26l0.7,1.68l0.28-0.84L75.05,256l0.56,0.28L101.42,193.44"/>
		</g>
		<g>
			<defs>
				<polyline id="SVGID_53_" points="45.31,193.3 101.42,193.3 101.42,259.37 45.31,259.37 45.31,193.3 				"/>
			</defs>
			<clipPath id="SVGID_54_">
				<use xlink:href="#SVGID_53_"  style="overflow:visible;"/>
			</clipPath>
			<path id="XMLID_300_" class="st28" d="M46.29,225.42L46.29,225.42c-0.14,0.42-0.28,0.7-0.42,1.12l0,0
				C45.87,226.12,46.01,225.84,46.29,225.42"/>
		</g>
		<g>
			<defs>
				<polyline id="SVGID_55_" points="45.31,193.3 101.42,193.3 101.42,259.37 45.31,259.37 45.31,193.3 				"/>
			</defs>
			<clipPath id="SVGID_56_">
				<use xlink:href="#SVGID_55_"  style="overflow:visible;"/>
			</clipPath>
			<polyline id="XMLID_301_" class="st29" points="74.35,256 73.22,257.26 74.49,258.81 75.05,257.68 74.35,256 			"/>
		</g>
		<g>
			<defs>
				<polyline id="SVGID_57_" points="45.31,193.3 101.42,193.3 101.42,259.37 45.31,259.37 45.31,193.3 				"/>
			</defs>
			<clipPath id="SVGID_58_">
				<use xlink:href="#SVGID_57_"  style="overflow:visible;"/>
			</clipPath>
			<polyline id="XMLID_302_" class="st30" points="45.73,226.54 45.73,226.54 45.73,226.54 45.73,226.54 45.73,226.54 			"/>
		</g>
		<g>
			<defs>
				<polyline id="SVGID_59_" points="45.31,193.3 101.42,193.3 101.42,259.37 45.31,259.37 45.31,193.3 				"/>
			</defs>
			<clipPath id="SVGID_60_">
				<use xlink:href="#SVGID_59_"  style="overflow:visible;"/>
			</clipPath>
			<polyline id="XMLID_303_" class="st31" points="45.87,226.54 45.73,226.54 72.94,257.68 73.22,257.26 45.87,226.54 			"/>
		</g>
		<g>
			<defs>
				<polyline id="SVGID_61_" points="45.31,193.3 101.42,193.3 101.42,259.37 45.31,259.37 45.31,193.3 				"/>
			</defs>
			<clipPath id="SVGID_62_">
				<use xlink:href="#SVGID_61_"  style="overflow:visible;"/>
			</clipPath>
			<polyline id="XMLID_304_" class="st32" points="45.73,226.54 45.73,226.54 45.73,226.54 45.87,226.54 45.73,226.54 			"/>
		</g>
		<g>
			<defs>
				<polyline id="SVGID_63_" points="45.31,193.3 101.42,193.3 101.42,259.37 45.31,259.37 45.31,193.3 				"/>
			</defs>
			<clipPath id="SVGID_64_">
				<use xlink:href="#SVGID_63_"  style="overflow:visible;"/>
			</clipPath>
			<polyline id="XMLID_305_" class="st33" points="73.22,257.26 72.94,257.68 74.35,259.37 74.49,258.81 73.22,257.26 			"/>
		</g>
	</g>
	<g id="XMLID_307_">
		<g>
			<defs>
				<polyline id="SVGID_65_" points="75.05,193.3 157.53,193.3 157.53,292.33 75.05,292.33 75.05,193.3 				"/>
			</defs>
			<clipPath id="SVGID_66_">
				<use xlink:href="#SVGID_65_"  style="overflow:visible;"/>
			</clipPath>
			<polyline id="XMLID_308_" class="st34" points="101.7,193.3 101.7,193.44 101.84,193.44 101.7,193.3 			"/>
		</g>
		<g>
			<defs>
				<polyline id="SVGID_67_" points="75.05,193.3 157.53,193.3 157.53,292.33 75.05,292.33 75.05,193.3 				"/>
			</defs>
			<clipPath id="SVGID_68_">
				<use xlink:href="#SVGID_67_"  style="overflow:visible;"/>
			</clipPath>
			<polyline id="XMLID_309_" class="st35" points="156.12,289.81 154.16,290.93 157.53,292.33 157.53,292.33 156.12,289.81 			"/>
		</g>
		<g>
			<defs>
				<polyline id="SVGID_69_" points="75.05,193.3 157.53,193.3 157.53,292.33 75.05,292.33 75.05,193.3 				"/>
			</defs>
			<clipPath id="SVGID_70_">
				<use xlink:href="#SVGID_69_"  style="overflow:visible;"/>
			</clipPath>
			<polyline id="XMLID_310_" class="st36" points="101.7,193.44 101.7,193.44 101.84,193.44 101.84,193.44 101.7,193.44 			"/>
		</g>
		<g>
			<defs>
				<polyline id="SVGID_71_" points="75.05,193.3 157.53,193.3 157.53,292.33 75.05,292.33 75.05,193.3 				"/>
			</defs>
			<clipPath id="SVGID_72_">
				<use xlink:href="#SVGID_71_"  style="overflow:visible;"/>
			</clipPath>
			<path id="XMLID_314_" class="st37" d="M75.61,257.68l-0.28,0.84l0.42,1.12l0.7,0.28L75.61,257.68 M101.56,193.58l-25.39,62.84
				l23.43,9.4l6.17-6.17l-19.78-20.2l7.29-7.29l19.78,20.2l7.29,7.29l-3.65,3.65l-3.65,3.65l-3.09,3.09l45.17,18.1L101.56,193.58
				 M101.7,193.44L101.7,193.44l0.14,0.14L101.7,193.44L101.7,193.44"/>
		</g>
		<g>
			<defs>
				<polyline id="SVGID_73_" points="75.05,193.3 157.53,193.3 157.53,292.33 75.05,292.33 75.05,193.3 				"/>
			</defs>
			<clipPath id="SVGID_74_">
				<use xlink:href="#SVGID_73_"  style="overflow:visible;"/>
			</clipPath>
			<polyline id="XMLID_315_" class="st38" points="75.33,258.38 75.05,259.37 75.89,259.65 75.33,258.38 			"/>
		</g>
	</g>
	<g id="XMLID_317_">
		<g>
			<defs>
				<polyline id="SVGID_75_" points="75.05,256 157.53,256 157.53,321.93 75.05,321.93 75.05,256 				"/>
			</defs>
			<clipPath id="SVGID_76_">
				<use xlink:href="#SVGID_75_"  style="overflow:visible;"/>
			</clipPath>
			<path id="XMLID_318_" class="st39" d="M153.18,290.65c-0.28,0.14-0.42,0.28-0.7,0.42l-46.15,26.37
				c-0.84,0.42-1.82,0.84-2.81,0.98c-0.7,0.14-1.4,0.28-2.24,0.28c-0.42,0-0.7,0-1.12,0l0.14,0.14c0.28,0,0.7,0,0.98,0
				c1.68,0,3.51-0.42,4.91-1.26l46.29-26.37C152.76,290.93,153.04,290.79,153.18,290.65L153.18,290.65"/>
		</g>
		<g>
			<defs>
				<polyline id="SVGID_77_" points="75.05,256 157.53,256 157.53,321.93 75.05,321.93 75.05,256 				"/>
			</defs>
			<clipPath id="SVGID_78_">
				<use xlink:href="#SVGID_77_"  style="overflow:visible;"/>
			</clipPath>
			<path id="XMLID_319_" class="st40" d="M153.32,290.65c-0.28,0.14-0.42,0.28-0.7,0.42l-46.29,26.37c-1.4,0.84-3.23,1.26-4.91,1.26
				c-0.28,0-0.7,0-0.98,0l1.26,3.23l52.46-31L153.32,290.65"/>
		</g>
		<g>
			<defs>
				<polyline id="SVGID_79_" points="75.05,256 157.53,256 157.53,321.93 75.05,321.93 75.05,256 				"/>
			</defs>
			<clipPath id="SVGID_80_">
				<use xlink:href="#SVGID_79_"  style="overflow:visible;"/>
			</clipPath>
			<path id="XMLID_320_" class="st41" d="M153.18,290.65c-0.28,0.14-0.42,0.28-0.7,0.42l-46.15,26.37
				c-0.84,0.42-1.82,0.84-2.81,0.98c0.98-0.14,1.96-0.56,2.81-0.98l46.15-26.37C152.76,290.79,153.04,290.79,153.18,290.65
				L153.18,290.65"/>
		</g>
		<g>
			<defs>
				<polyline id="SVGID_81_" points="75.05,256 157.53,256 157.53,321.93 75.05,321.93 75.05,256 				"/>
			</defs>
			<clipPath id="SVGID_82_">
				<use xlink:href="#SVGID_81_"  style="overflow:visible;"/>
			</clipPath>
			<path id="XMLID_321_" class="st42" d="M155.42,288.54c-0.56,0.84-1.4,1.4-2.1,1.96h0.14
				C154.02,290.09,154.72,289.39,155.42,288.54"/>
		</g>
		<g>
			<defs>
				<polyline id="SVGID_83_" points="75.05,256 157.53,256 157.53,321.93 75.05,321.93 75.05,256 				"/>
			</defs>
			<clipPath id="SVGID_84_">
				<use xlink:href="#SVGID_83_"  style="overflow:visible;"/>
			</clipPath>
			<path id="XMLID_322_" class="st43" d="M155.42,288.54L155.42,288.54c-0.56,0.84-1.26,1.54-2.1,2.1l0.84,0.42l1.96-1.12
				L155.42,288.54"/>
		</g>
		<g>
			<defs>
				<polyline id="SVGID_85_" points="75.05,256 157.53,256 157.53,321.93 75.05,321.93 75.05,256 				"/>
			</defs>
			<clipPath id="SVGID_86_">
				<use xlink:href="#SVGID_85_"  style="overflow:visible;"/>
			</clipPath>
			<path id="XMLID_323_" class="st44" d="M155.42,288.54c-0.56,0.84-1.4,1.54-2.24,1.96l0,0
				C154.02,290.09,154.72,289.39,155.42,288.54L155.42,288.54L155.42,288.54"/>
		</g>
		<g>
			<defs>
				<polyline id="SVGID_87_" points="75.05,256 157.53,256 157.53,321.93 75.05,321.93 75.05,256 				"/>
			</defs>
			<clipPath id="SVGID_88_">
				<use xlink:href="#SVGID_87_"  style="overflow:visible;"/>
			</clipPath>
			<polyline id="XMLID_324_" class="st45" points="155.42,288.54 155.42,288.54 155.42,288.54 155.42,288.54 			"/>
		</g>
		<g>
			<defs>
				<polyline id="SVGID_89_" points="75.05,256 157.53,256 157.53,321.93 75.05,321.93 75.05,256 				"/>
			</defs>
			<clipPath id="SVGID_90_">
				<use xlink:href="#SVGID_89_"  style="overflow:visible;"/>
			</clipPath>
			<polyline id="XMLID_325_" class="st46" points="75.61,256.28 75.33,256.84 75.61,257.68 76.17,256.42 75.61,256.28 			"/>
		</g>
		<g>
			<defs>
				<polyline id="SVGID_91_" points="75.05,256 157.53,256 157.53,321.93 75.05,321.93 75.05,256 				"/>
			</defs>
			<clipPath id="SVGID_92_">
				<use xlink:href="#SVGID_91_"  style="overflow:visible;"/>
			</clipPath>
			<path id="XMLID_326_" class="st47" d="M103.52,318.42c-0.7,0.14-1.4,0.28-2.1,0.28l0,0l0,0c-0.28,0-0.7,0-0.98,0l0,0
				c0.42,0,0.7,0,1.12,0C102.12,318.56,102.82,318.56,103.52,318.42"/>
		</g>
		<g>
			<defs>
				<polyline id="SVGID_93_" points="75.05,256 157.53,256 157.53,321.93 75.05,321.93 75.05,256 				"/>
			</defs>
			<clipPath id="SVGID_94_">
				<use xlink:href="#SVGID_93_"  style="overflow:visible;"/>
			</clipPath>
			<polyline id="XMLID_327_" class="st48" points="101.42,318.56 101.28,318.56 101.42,318.56 101.42,318.56 			"/>
		</g>
		<g>
			<defs>
				<polyline id="SVGID_95_" points="75.05,256 157.53,256 157.53,321.93 75.05,321.93 75.05,256 				"/>
			</defs>
			<clipPath id="SVGID_96_">
				<use xlink:href="#SVGID_95_"  style="overflow:visible;"/>
			</clipPath>
			<path id="XMLID_328_" class="st49" d="M76.59,259.93l23.71,58.63c0.28,0,0.7,0,0.98,0h0.14c0.7,0,1.4-0.14,2.1-0.28
				c0.98-0.14,1.96-0.56,2.81-0.98l46.15-26.37c0.28-0.14,0.42-0.28,0.7-0.42l-45.73-18.24L92.72,287l-7.29-7.29l11.64-11.64
				L76.59,259.93"/>
		</g>
		<g>
			<defs>
				<polyline id="SVGID_97_" points="75.05,256 157.53,256 157.53,321.93 75.05,321.93 75.05,256 				"/>
			</defs>
			<clipPath id="SVGID_98_">
				<use xlink:href="#SVGID_97_"  style="overflow:visible;"/>
			</clipPath>
			<polyline id="XMLID_329_" class="st50" points="75.05,256 75.05,256 75.33,256.84 75.61,256.28 75.05,256 			"/>
		</g>
		<g>
			<defs>
				<polyline id="SVGID_99_" points="75.05,256 157.53,256 157.53,321.93 75.05,321.93 75.05,256 				"/>
			</defs>
			<clipPath id="SVGID_100_">
				<use xlink:href="#SVGID_99_"  style="overflow:visible;"/>
			</clipPath>
			<path id="XMLID_332_" class="st51" d="M109.83,269.89l-2.38,2.38l45.73,18.24c0.84-0.56,1.54-1.26,2.24-1.96l-0.28-0.56
				L109.83,269.89 M76.17,256.42l-0.42,1.12l0.98,2.24l20.62,8.28l2.38-2.38L76.17,256.42"/>
		</g>
	</g>
	<polyline id="XMLID_136_" class="st1" points="157.53,229.49 157.53,229.49 157.53,229.63 157.53,282.37 157.53,282.51 
		157.53,282.51 157.53,282.51 157.53,229.49 157.53,229.49 	"/>
	<path id="XMLID_335_" class="st1" d="M157.53,282.51L157.53,282.51v6.45l0,0v3.37l0,0V282.51 M157.53,226.26v3.09v0.14V226.26"/>
	<polyline id="XMLID_336_" class="st1" points="157.53,229.49 157.53,229.63 157.53,282.37 157.53,282.51 157.53,282.37 
		157.53,229.63 157.53,229.49 	"/>
	<polyline id="XMLID_337_" class="st1" points="157.53,288.96 157.53,288.96 157.53,288.96 	"/>
	<g id="XMLID_340_">
		<g>
			<defs>
				<polyline id="SVGID_101_" points="101.42,193.3 157.53,193.3 157.53,292.33 101.42,292.33 101.42,193.3 				"/>
			</defs>
			<clipPath id="SVGID_102_">
				<use xlink:href="#SVGID_101_"  style="overflow:visible;"/>
			</clipPath>
			<path id="XMLID_343_" class="st52" d="M157.53,229.21v0.14l0,0V229.21 M101.42,193.3L101.42,193.3L101.42,193.3L101.42,193.3
				L101.42,193.3"/>
		</g>
		<g>
			<defs>
				<polyline id="SVGID_103_" points="101.42,193.3 157.53,193.3 157.53,292.33 101.42,292.33 101.42,193.3 				"/>
			</defs>
			<clipPath id="SVGID_104_">
				<use xlink:href="#SVGID_103_"  style="overflow:visible;"/>
			</clipPath>
			<path id="XMLID_344_" class="st53" d="M156.83,225.84c0.42,1.12,0.7,2.24,0.7,3.37v0.14v-3.09L156.83,225.84"/>
		</g>
		<g>
			<defs>
				<polyline id="SVGID_105_" points="101.42,193.3 157.53,193.3 157.53,292.33 101.42,292.33 101.42,193.3 				"/>
			</defs>
			<clipPath id="SVGID_106_">
				<use xlink:href="#SVGID_105_"  style="overflow:visible;"/>
			</clipPath>
			<path id="XMLID_345_" class="st54" d="M157.53,229.07c0,0.14,0,0.42,0,0.56v-0.14v-0.14V229.07"/>
		</g>
		<g>
			<defs>
				<polyline id="SVGID_107_" points="101.42,193.3 157.53,193.3 157.53,292.33 101.42,292.33 101.42,193.3 				"/>
			</defs>
			<clipPath id="SVGID_108_">
				<use xlink:href="#SVGID_107_"  style="overflow:visible;"/>
			</clipPath>
			<path id="XMLID_346_" class="st55" d="M156.83,225.84c0.42,0.98,0.7,2.1,0.7,3.09v0.28
				C157.39,228.09,157.25,226.96,156.83,225.84L156.83,225.84"/>
		</g>
		<g>
			<defs>
				<polyline id="SVGID_109_" points="101.42,193.3 157.53,193.3 157.53,292.33 101.42,292.33 101.42,193.3 				"/>
			</defs>
			<clipPath id="SVGID_110_">
				<use xlink:href="#SVGID_109_"  style="overflow:visible;"/>
			</clipPath>
			<polyline id="XMLID_347_" class="st56" points="157.53,282.51 157.53,282.51 157.53,282.79 157.53,282.51 157.53,282.51 			"/>
		</g>
		<g>
			<defs>
				<polyline id="SVGID_111_" points="101.42,193.3 157.53,193.3 157.53,292.33 101.42,292.33 101.42,193.3 				"/>
			</defs>
			<clipPath id="SVGID_112_">
				<use xlink:href="#SVGID_111_"  style="overflow:visible;"/>
			</clipPath>
			<path id="XMLID_348_" class="st57" d="M157.53,282.51v0.14c0,2.1-0.7,3.93-1.82,5.47l1.82,0.7V282.51"/>
		</g>
		<g>
			<defs>
				<polyline id="SVGID_113_" points="101.42,193.3 157.53,193.3 157.53,292.33 101.42,292.33 101.42,193.3 				"/>
			</defs>
			<clipPath id="SVGID_114_">
				<use xlink:href="#SVGID_113_"  style="overflow:visible;"/>
			</clipPath>
			<path id="XMLID_349_" class="st58" d="M157.53,282.37c0,0.14,0,0.42,0,0.56v-0.28v-0.14V282.37"/>
		</g>
		<g>
			<defs>
				<polyline id="SVGID_115_" points="101.42,193.3 157.53,193.3 157.53,292.33 101.42,292.33 101.42,193.3 				"/>
			</defs>
			<clipPath id="SVGID_116_">
				<use xlink:href="#SVGID_115_"  style="overflow:visible;"/>
			</clipPath>
			<path id="XMLID_350_" class="st59" d="M157.53,282.79v0.28c-0.14,1.96-0.84,3.79-1.82,5.33l0,0
				C156.69,286.72,157.39,284.76,157.53,282.79"/>
		</g>
		<g>
			<defs>
				<polyline id="SVGID_117_" points="101.42,193.3 157.53,193.3 157.53,292.33 101.42,292.33 101.42,193.3 				"/>
			</defs>
			<clipPath id="SVGID_118_">
				<use xlink:href="#SVGID_117_"  style="overflow:visible;"/>
			</clipPath>
			<polyline id="XMLID_351_" class="st60" points="157.53,288.96 157.53,288.96 156.12,289.81 157.53,292.33 157.53,288.96 			"/>
		</g>
		<g>
			<defs>
				<polyline id="SVGID_119_" points="101.42,193.3 157.53,193.3 157.53,292.33 101.42,292.33 101.42,193.3 				"/>
			</defs>
			<clipPath id="SVGID_120_">
				<use xlink:href="#SVGID_119_"  style="overflow:visible;"/>
			</clipPath>
			<polyline id="XMLID_352_" class="st61" points="156.12,289.81 156.12,289.81 157.53,292.33 157.53,292.33 156.12,289.81 			"/>
		</g>
		<g>
			<defs>
				<polyline id="SVGID_121_" points="101.42,193.3 157.53,193.3 157.53,292.33 101.42,292.33 101.42,193.3 				"/>
			</defs>
			<clipPath id="SVGID_122_">
				<use xlink:href="#SVGID_121_"  style="overflow:visible;"/>
			</clipPath>
			<polyline id="XMLID_353_" class="st62" points="155.56,288.26 155.42,288.54 156.12,289.81 157.53,288.96 157.53,288.96 
				155.56,288.26 			"/>
		</g>
		<g>
			<defs>
				<polyline id="SVGID_123_" points="101.42,193.3 157.53,193.3 157.53,292.33 101.42,292.33 101.42,193.3 				"/>
			</defs>
			<clipPath id="SVGID_124_">
				<use xlink:href="#SVGID_123_"  style="overflow:visible;"/>
			</clipPath>
			<polyline id="XMLID_354_" class="st63" points="155.42,288.54 155.42,288.54 155.42,288.54 155.42,288.54 			"/>
		</g>
		<g>
			<defs>
				<polyline id="SVGID_125_" points="101.42,193.3 157.53,193.3 157.53,292.33 101.42,292.33 101.42,193.3 				"/>
			</defs>
			<clipPath id="SVGID_126_">
				<use xlink:href="#SVGID_125_"  style="overflow:visible;"/>
			</clipPath>
			<polyline id="XMLID_355_" class="st64" points="155.56,288.26 155.42,288.54 155.42,288.54 155.42,288.54 155.56,288.26 
				155.56,288.26 			"/>
		</g>
		<g>
			<defs>
				<polyline id="SVGID_127_" points="101.42,193.3 157.53,193.3 157.53,292.33 101.42,292.33 101.42,193.3 				"/>
			</defs>
			<clipPath id="SVGID_128_">
				<use xlink:href="#SVGID_127_"  style="overflow:visible;"/>
			</clipPath>
			<polyline id="XMLID_356_" class="st65" points="155.42,288.54 155.42,288.54 156.12,289.81 156.12,289.81 155.42,288.54 			"/>
		</g>
		<g>
			<defs>
				<polyline id="SVGID_129_" points="101.42,193.3 157.53,193.3 157.53,292.33 101.42,292.33 101.42,193.3 				"/>
			</defs>
			<clipPath id="SVGID_130_">
				<use xlink:href="#SVGID_129_"  style="overflow:visible;"/>
			</clipPath>
			<polyline id="XMLID_357_" class="st66" points="155.42,288.54 155.42,288.54 155.42,288.54 155.42,288.54 155.42,288.54 			"/>
		</g>
		<g>
			<defs>
				<polyline id="SVGID_131_" points="101.42,193.3 157.53,193.3 157.53,292.33 101.42,292.33 101.42,193.3 				"/>
			</defs>
			<clipPath id="SVGID_132_">
				<use xlink:href="#SVGID_131_"  style="overflow:visible;"/>
			</clipPath>
			<polyline id="XMLID_358_" class="st67" points="155.42,288.54 155.42,288.54 155.42,288.54 155.42,288.54 155.42,288.54 			"/>
		</g>
		<g>
			<defs>
				<polyline id="SVGID_133_" points="101.42,193.3 157.53,193.3 157.53,292.33 101.42,292.33 101.42,193.3 				"/>
			</defs>
			<clipPath id="SVGID_134_">
				<use xlink:href="#SVGID_133_"  style="overflow:visible;"/>
			</clipPath>
			<polyline id="XMLID_359_" class="st68" points="101.42,193.44 101.42,193.44 101.56,193.44 101.56,193.44 101.42,193.44 			"/>
		</g>
		<g>
			<defs>
				<polyline id="SVGID_135_" points="101.42,193.3 157.53,193.3 157.53,292.33 101.42,292.33 101.42,193.3 				"/>
			</defs>
			<clipPath id="SVGID_136_">
				<use xlink:href="#SVGID_135_"  style="overflow:visible;"/>
			</clipPath>
			<polyline id="XMLID_360_" class="st69" points="101.42,193.44 101.56,193.58 101.7,193.44 101.56,193.44 101.42,193.44 			"/>
		</g>
		<g>
			<defs>
				<polyline id="SVGID_137_" points="101.42,193.3 157.53,193.3 157.53,292.33 101.42,292.33 101.42,193.3 				"/>
			</defs>
			<clipPath id="SVGID_138_">
				<use xlink:href="#SVGID_137_"  style="overflow:visible;"/>
			</clipPath>
			<path id="XMLID_361_" class="st70" d="M101.84,193.58l53.16,94.4l0.56,0.14c1.12-1.54,1.82-3.37,1.82-5.33c0-0.14,0-0.42,0-0.56
				v-52.74c0-0.14,0-0.42,0-0.56c0-1.12-0.28-2.1-0.7-3.23L101.84,193.58"/>
		</g>
		<g>
			<defs>
				<polyline id="SVGID_139_" points="101.42,193.3 157.53,193.3 157.53,292.33 101.42,292.33 101.42,193.3 				"/>
			</defs>
			<clipPath id="SVGID_140_">
				<use xlink:href="#SVGID_139_"  style="overflow:visible;"/>
			</clipPath>
			<path id="XMLID_364_" class="st71" d="M157.53,282.93c-0.14,1.82-0.84,3.79-1.82,5.33l0,0
				C156.69,286.72,157.39,284.9,157.53,282.93 M156.69,225.84c0.42,0.98,0.7,2.1,0.7,3.23
				C157.39,227.95,157.11,226.82,156.69,225.84L156.69,225.84"/>
		</g>
		<g>
			<defs>
				<polyline id="SVGID_141_" points="101.42,193.3 157.53,193.3 157.53,292.33 101.42,292.33 101.42,193.3 				"/>
			</defs>
			<clipPath id="SVGID_142_">
				<use xlink:href="#SVGID_141_"  style="overflow:visible;"/>
			</clipPath>
			<polyline id="XMLID_365_" class="st72" points="101.7,193.44 101.56,193.58 155.14,287.98 155.14,287.98 101.84,193.58 
				101.7,193.44 			"/>
		</g>
		<g>
			<defs>
				<polyline id="SVGID_143_" points="101.42,193.3 157.53,193.3 157.53,292.33 101.42,292.33 101.42,193.3 				"/>
			</defs>
			<clipPath id="SVGID_144_">
				<use xlink:href="#SVGID_143_"  style="overflow:visible;"/>
			</clipPath>
			<polyline id="XMLID_366_" class="st73" points="155.14,287.98 155.42,288.54 155.42,288.54 155.56,288.26 155.14,287.98 			"/>
		</g>
		<g>
			<defs>
				<polyline id="SVGID_145_" points="101.42,193.3 157.53,193.3 157.53,292.33 101.42,292.33 101.42,193.3 				"/>
			</defs>
			<clipPath id="SVGID_146_">
				<use xlink:href="#SVGID_145_"  style="overflow:visible;"/>
			</clipPath>
			<polyline id="XMLID_367_" class="st74" points="155.56,288.26 155.42,288.54 155.56,288.26 155.56,288.26 			"/>
		</g>
		<g>
			<defs>
				<polyline id="SVGID_147_" points="101.42,193.3 157.53,193.3 157.53,292.33 101.42,292.33 101.42,193.3 				"/>
			</defs>
			<clipPath id="SVGID_148_">
				<use xlink:href="#SVGID_147_"  style="overflow:visible;"/>
			</clipPath>
			<polyline id="XMLID_368_" class="st75" points="155.14,287.98 155.42,288.54 155.42,288.54 155.14,287.98 155.14,287.98 			"/>
		</g>
	</g>
	<polyline id="XMLID_338_" class="st76" points="93.14,232.29 85.85,239.45 105.63,259.65 99.45,265.82 109.83,269.89 
		112.92,266.94 116.57,263.29 120.21,259.65 112.92,252.35 93.14,232.29 	"/>
	<polyline id="XMLID_369_" class="st77" points="97.21,268.2 85.57,279.71 92.86,287 107.59,272.27 97.21,268.2 	"/>
	<polyline id="XMLID_370_" class="st77" points="99.45,265.82 97.21,268.2 107.59,272.27 109.83,269.89 99.45,265.82 	"/>
	<polygon id="XMLID_371_" class="st78" points="120.21,256.28 112.92,249.13 85.85,276.48 93.14,283.77 	"/>
	<polygon id="XMLID_372_" class="st78" points="93.14,228.93 85.85,236.22 112.92,263.57 120.21,256.28 	"/>
</g>
</svg>
