<?xml version="1.0" encoding="utf-8"?>
<!-- Generator: Adobe Illustrator 19.0.0, SVG Export Plug-In . SVG Version: 6.00 Build 0)  -->
<svg version="1.1" id="Layer_1" xmlns="http://www.w3.org/2000/svg" xmlns:xlink="http://www.w3.org/1999/xlink" x="0px" y="0px"
	 viewBox="155 288 922 218" enable-background="new 155 288 922 218" xml:space="preserve">
<g>
	<path id="path-1" fill="#FFFFFF" d="M318.5,419.6c0,50.9-27.4,76.4-82.2,76.4h-73.6V294.3H201h35.3c8,0,15.3,1.3,21.8,3.4l0.9,2.3
		l56,56c0,0,0,0,2.7,1c0.5,4.6,0.8,8.6,0.8,13.7V419.6z M281.8,367.2c0-26.3-14.9-39.5-44.9-39.5h-38.1v132.9h38.1
		c30,0,44.9-13.1,44.9-39.4V367.2z"/>
</g>
<title>DocHub WordMark</title>
<g id="Page-1">
	<g id="DocHub-WordMark" transform="translate(8.000000, 6.000000)">
		<g id="DocHub-Wordmark">
			<g id="D">
				<path id="path-1_1_" d="M310.5,413.6c0,50.9-27.4,76.4-82.2,76.4h-73.6V288.3H193h35.3c8,0,15.3,1.3,21.8,3.4l0.9,2.3l56,56
					c0,0,0,0,2.7,1c0.5,4.6,0.8,8.6,0.8,13.7V413.6z M273.8,361.2c0-26.3-14.9-39.5-44.9-39.5h-38.1v132.9h38.1
					c30,0,44.9-13.1,44.9-39.4V361.2z"/>
			</g>
			<path id="Fold" fill="#32A4FA" d="M250,291.7V351h59.7L250,291.7z"/>
		</g>
		<path id="ocHub" d="M361.2,428.1c0-5,0.5-9.9,1.4-14.7c1-4.8,2.6-9,5-12.7c2.3-3.7,5.4-6.7,9.2-9c3.8-2.3,8.6-3.5,14.4-3.5
			c5.8,0,10.6,1.2,14.5,3.5c3.9,2.3,7.1,5.3,9.4,9c2.3,3.7,3.9,7.9,4.9,12.7c1,4.8,1.4,9.7,1.4,14.7c0,4.9-0.4,9.8-1.4,14.5
			c-1,4.7-2.6,9-4.9,12.7c-2.3,3.8-5.5,6.8-9.4,9c-3.9,2.3-8.7,3.4-14.5,3.4c-5.8,0-10.6-1.1-14.4-3.4c-3.8-2.2-6.9-5.2-9.2-9
			c-2.4-3.7-4-8-5-12.7C361.7,437.9,361.2,433,361.2,428.1L361.2,428.1z M327.1,428.1c0,9.9,1.5,18.9,4.6,26.9
			c3,8,7.3,14.8,12.9,20.5s12.4,10,20.2,13.1c7.8,3,16.6,4.5,26.4,4.5c9.8,0,18.6-1.5,26.5-4.5c7.9-3.1,14.7-7.4,20.3-13.1
			s9.9-12.5,13-20.5c3-8,4.5-17,4.5-26.9s-1.5-18.9-4.5-27c-3.1-8.1-7.4-15-13-20.7c-5.6-5.6-12.4-10-20.3-13.2
			c-7.9-3.1-16.7-4.6-26.5-4.6c-9.8,0-18.6,1.5-26.4,4.6c-7.8,3.2-14.6,7.6-20.2,13.2c-5.6,5.7-9.9,12.6-12.9,20.7
			C328.6,409.2,327.1,418.2,327.1,428.1L327.1,428.1z M562.1,409.6h33.3c-0.4-8-2.4-14.9-5.7-20.8c-3.4-5.8-7.7-10.7-13.1-14.6
			c-5.4-3.9-11.4-6.8-18.2-8.8c-6.8-1.9-13.9-2.8-21.3-2.8c-10.1,0-19,1.6-26.9,5c-7.8,3.4-14.4,8-19.9,14
			c-5.4,6-9.5,13.2-12.3,21.4s-4.2,17.2-4.2,26.8c0,9.2,1.5,17.8,4.5,25.5c3.1,7.8,7.3,14.5,12.7,20.1c5.5,5.6,12.1,9.9,19.8,13
			c7.8,3.2,16.3,4.7,25.6,4.7c16.5,0,30-4.3,40.6-12.9c10.5-8.7,16.9-21.2,19.2-37.7h-32.9c-1.1,7.7-3.9,13.8-8.3,18.3
			c-4.4,4.6-10.7,6.9-18.8,6.9c-5.3,0-9.8-1.2-13.5-3.6s-6.6-5.5-8.7-9.3c-2.2-3.7-3.8-7.9-4.7-12.6c-1-4.6-1.5-9.2-1.5-13.6
			c0-4.7,0.5-9.4,1.5-14.1c0.9-4.7,2.6-9,4.9-12.9c2.3-4,5.3-7.2,9-9.6c3.7-2.5,8.2-3.8,13.7-3.8
			C551.4,388.2,559.8,395.4,562.1,409.6L562.1,409.6z M619,318.6V490h37.6v-73.9H726V490h37.7V318.6H726v65.8h-69.4v-65.8H619z
			 M909.6,490V365.9h-34.1V431c0,12.6-2.1,21.7-6.2,27.2c-4.2,5.5-10.9,8.3-20.2,8.3c-8.1,0-13.8-2.5-17-7.6
			c-3.2-5-4.8-12.7-4.8-22.9v-70.1h-34.1v76.3c0,7.7,0.7,14.7,2,21c1.4,6.4,3.8,11.7,7.1,16.1c3.4,4.4,8,7.8,13.8,10.2
			c5.9,2.4,13.3,3.6,22.5,3.6c7.2,0,14.2-1.6,21.1-4.8c6.9-3.2,12.5-8.4,16.8-15.6h0.7V490H909.6z M1026.5,428.1
			c0,5.1-0.6,10.1-1.7,14.9c-1.1,4.8-2.9,9-5.3,12.7c-2.4,3.7-5.4,6.6-9,8.7c-3.6,2.2-7.9,3.3-13.1,3.3c-4.9,0-9.2-1.1-12.9-3.3
			c-3.7-2.1-6.7-5-9.1-8.7c-2.4-3.7-4.2-7.9-5.3-12.7c-1.1-4.8-1.7-9.8-1.7-14.9c0-5.3,0.6-10.3,1.7-15.1c1.1-4.8,2.9-9.1,5.3-12.8
			c2.4-3.6,5.4-6.6,9.1-8.7c3.7-2.2,8-3.3,12.9-3.3c5.2,0,9.5,1.1,13.1,3.3c3.6,2.1,6.6,5.1,9,8.7c2.4,3.7,4.2,8,5.3,12.8
			C1025.9,417.8,1026.5,422.8,1026.5,428.1L1026.5,428.1z M935.5,318.6V490h32.4v-15.8h0.5c3.7,6.8,9.1,11.7,16.3,14.6
			c7.2,2.9,15.4,4.3,24.5,4.3c6.2,0,12.4-1.3,18.5-3.8c6.1-2.6,11.5-6.5,16.4-11.8s8.9-12,11.9-20.3c3-8.2,4.6-18,4.6-29.4
			c0-11.3-1.6-21.1-4.6-29.4c-3-8.2-7-15-11.9-20.2c-4.9-5.3-10.3-9.2-16.4-11.8c-6.1-2.6-12.3-3.8-18.5-3.8
			c-7.7,0-15.1,1.4-22.2,4.4s-12.8,7.6-16.9,14h-0.5v-62.4H935.5z"/>
	</g>
</g>
</svg>
