<svg width="674" height="104" viewBox="0 0 674 104" fill="none" xmlns="http://www.w3.org/2000/svg">
<path d="M114.675 47.6887L95.075 36.3887L79.275 27.2887C77.075 26.0887 74.375 26.7887 73.075 28.9887C64.875 43.2887 64.875 60.8887 73.075 75.1887C74.275 77.3887 77.075 78.0887 79.275 76.8887L95.075 67.7887L114.675 56.4887C117.975 54.3887 117.975 49.5887 114.675 47.6887Z" fill="#14234B"/>
<path d="M64.275 79.3889C54.475 62.3889 54.475 41.5889 64.275 24.5889L64.775 23.7889C65.975 21.7889 65.275 19.1889 63.175 17.9889L33.175 0.688889C30.775 -0.711111 27.775 0.0888889 26.375 2.48889L1.875 44.8889C-0.625 49.2889 -0.625 54.6889 1.875 59.0889L26.375 101.489C27.775 103.889 30.775 104.689 33.175 103.289L63.175 85.9889C65.175 84.7889 65.875 82.1889 64.775 80.1889L64.275 79.3889Z" fill="#14234B"/>
<path d="M169.875 13.5889H144.975V90.4889H169.875C191.175 90.4889 209.275 77.7889 209.275 52.0889C209.275 26.2889 191.175 13.5889 169.875 13.5889ZM168.675 77.7889H159.475V26.0889H168.675C181.975 26.0889 194.575 32.9889 194.575 51.9889C194.575 70.9889 181.975 77.7889 168.675 77.7889Z" fill="#14234B"/>
<path d="M429.275 34.1889C422.075 34.1889 416.175 37.2889 413.075 41.7889V13.5889H399.675V90.4889H413.075V83.5889C416.275 88.3889 422.375 91.3889 429.075 91.3889C445.675 91.3889 455.475 79.7889 455.475 62.8889C455.475 45.8889 445.675 34.1889 429.275 34.1889ZM427.075 79.6889C418.075 79.6889 412.175 72.9889 412.175 62.7889C412.175 52.5889 418.075 45.8889 427.075 45.8889C436.075 45.8889 441.975 52.5889 441.975 62.7889C442.075 72.9889 436.175 79.6889 427.075 79.6889Z" fill="#14234B"/>
<path d="M488.375 34.189C471.475 34.189 459.375 46.289 459.375 62.689C459.375 79.189 471.475 91.189 488.375 91.189C505.175 91.189 517.275 79.089 517.275 62.689C517.275 46.289 505.175 34.189 488.375 34.189ZM488.375 79.689C479.175 79.689 472.975 72.789 472.975 62.789C472.975 52.789 479.075 45.889 488.375 45.889C497.475 45.889 503.675 52.789 503.675 62.789C503.675 72.789 497.475 79.689 488.375 79.689Z" fill="#14234B"/>
<path d="M659.675 13.5889V41.7889C656.475 37.2889 650.675 34.1889 643.475 34.1889C627.075 34.1889 617.375 45.7889 617.375 62.6889C617.375 79.5889 627.175 91.1889 643.675 91.1889C650.375 91.1889 656.475 88.1889 659.675 83.3889V90.2889H673.075V13.5889H659.675ZM645.575 79.6889C636.575 79.6889 630.675 72.9889 630.675 62.7889C630.675 52.5889 636.575 45.8889 645.575 45.8889C654.575 45.8889 660.475 52.5889 660.475 62.7889C660.475 72.9889 654.575 79.6889 645.575 79.6889Z" fill="#14234B"/>
<path d="M305.675 75.989V72.489V54.589C305.675 47.689 303.475 42.489 299.075 38.989C294.575 35.489 288.575 33.689 280.975 33.689C267.975 33.689 256.475 40.289 256.775 53.589H269.975V53.089C270.275 49.189 272.775 45.889 281.075 45.889C291.775 45.889 292.575 51.289 292.575 53.689C292.575 54.789 292.075 56.089 289.875 56.089H278.975C262.875 56.089 254.875 64.389 254.875 73.889C254.875 83.789 261.675 91.489 276.675 91.489C281.075 91.489 284.375 90.889 287.575 89.389C292.475 87.089 294.275 84.889 294.875 83.989C296.175 88.389 300.575 90.389 306.975 90.389H311.875V79.389H309.675C307.275 79.489 305.675 78.189 305.675 75.989ZM276.675 79.489C269.875 79.489 268.075 76.289 268.075 73.889C268.075 70.889 269.675 65.689 279.475 65.689H292.575V67.089C292.875 72.589 288.375 79.489 276.675 79.489Z" fill="#14234B"/>
<path d="M566.975 38.989C562.575 35.489 556.475 33.689 548.875 33.689C535.875 33.689 524.375 40.289 524.675 53.589H537.775V53.089C538.075 49.189 540.575 45.889 548.875 45.889C559.575 45.889 560.375 51.289 560.375 53.689C560.375 54.789 559.875 56.089 557.675 56.089H546.775C530.675 56.089 522.675 64.389 522.675 73.889C522.675 83.789 529.475 91.489 544.475 91.489C548.875 91.489 552.175 90.889 555.375 89.389C557.475 88.389 558.975 87.389 560.075 86.589L559.975 90.389H573.475V54.589C573.575 47.789 571.375 42.589 566.975 38.989ZM544.475 79.489C537.675 79.489 535.875 76.289 535.875 73.889C535.875 70.889 537.475 65.689 547.275 65.689H560.375V67.089C560.675 72.589 556.175 79.489 544.475 79.489Z" fill="#14234B"/>
<path d="M230.975 44.5891V34.7891H217.475V90.4891H230.975V64.7891C230.975 54.2891 234.375 46.8891 242.975 46.8891H252.075V34.8891H245.175C237.975 34.7891 233.675 37.5891 230.975 44.5891Z" fill="#14234B"/>
<path d="M594.175 44.5891V34.7891H580.675V90.4891H594.175V64.7891C594.175 54.2891 597.575 46.8891 606.175 46.8891H615.275V34.8891H608.375C601.275 34.7891 596.975 37.5891 594.175 44.5891Z" fill="#14234B"/>
<path d="M371.175 73.2887L359.975 34.8887H343.275L332.075 73.2887L322.375 34.8887H308.875L324.175 90.5887H339.375L351.675 49.2887L363.875 90.5887H379.075L394.375 34.8887H380.875L371.175 73.2887Z" fill="#14234B"/>
</svg>
