<svg width="348" height="144" viewBox="0 0 348 144" fill="none" xmlns="http://www.w3.org/2000/svg" class="wsc-svg-logo-iskysoft-horizontal-white">
<path d="M283.089 75.0016V75.3009C283.089 76.0789 283.392 76.3782 284.178 76.3782H288.051V101.276C288.051 102.413 288.353 102.712 289.503 102.712H289.806C290.955 102.712 291.258 102.413 291.258 101.276V76.3782H301.908L301.927 76.3781H306.481V92.8967C306.481 99.7794 309.627 103.251 315.981 103.251C318.038 103.251 319.914 103.011 321.608 102.532C322.637 102.233 323 101.874 323 100.857V100.617C323 99.5998 322.516 99.1809 321.608 99.4801C319.914 99.9589 318.038 100.198 315.92 100.198C311.866 100.198 309.688 98.2233 309.688 92.8967V76.3781H320.519C321.669 76.3781 321.911 76.019 321.911 75.0016V74.7622C321.911 73.7448 321.669 73.3857 320.519 73.3857H309.688V66.6825C309.688 65.9044 309.506 65.6052 308.599 65.6052H308.296C307.509 65.6052 307.267 65.7848 307.086 66.6825L306.481 73.3857L291.258 73.3857V67.9992C291.258 64.5279 293.376 62.7923 297.611 62.7923C299.245 62.7923 300.94 62.9718 302.755 63.3908C303.723 63.6302 304.086 63.3309 304.086 62.3135V61.9544C304.086 60.8172 303.905 60.6377 302.876 60.3983C301.242 59.9794 299.487 59.7998 297.551 59.7998C291.197 59.7998 288.051 62.6127 288.051 68.1788V73.3857L284.178 73.8046C283.271 73.9842 283.089 74.2236 283.089 75.0016Z" fill="white"/>
<path d="M138.135 66.5628C139.647 67.9992 142.068 67.9992 143.52 66.5628C145.033 65.0666 145.033 62.6726 143.52 61.2362C142.068 59.7399 139.647 59.7399 138.135 61.2362C136.622 62.6726 136.622 65.0666 138.135 66.5628Z" fill="white"/>
<path d="M137.711 100.019C137.711 102.173 138.256 102.712 140.434 102.712H141.221C143.399 102.712 143.944 102.173 143.944 100.019V75.7198C143.944 73.5652 143.399 73.0266 141.221 73.0266H140.434C138.256 73.0266 137.711 73.5652 137.711 75.7198V100.019Z" fill="white"/>
<path d="M149.999 101.994C148.002 101.335 147.578 100.976 147.578 99.0013V98.0437C147.578 95.949 148.183 95.3505 150.059 96.0089C153.145 96.9664 156.413 97.4452 159.862 97.4452C165.368 97.4452 167.668 96.368 167.668 93.2558C167.668 92.0588 167.305 91.1012 166.578 90.383C165.852 89.6049 164.461 88.6473 162.464 87.4504L154.113 82.4828C150.059 80.0888 148.062 76.857 148.062 72.7273C148.062 66.3234 152.298 63.2711 161.435 63.2711C164.642 63.2711 167.426 63.69 169.846 64.4681C171.964 65.1264 172.448 65.5454 172.448 67.4606V68.478C172.448 70.5727 172.024 70.9917 170.028 70.453C167.486 69.6151 164.642 69.1962 161.435 69.1962C156.594 69.1962 154.597 70.2136 154.597 72.9069C154.597 74.8819 155.566 75.8994 158.41 77.5752L167.002 82.7821C171.843 85.6549 174.203 88.2284 174.203 93.2558C174.203 100.019 169.665 103.37 159.741 103.37C156.05 103.37 152.782 102.892 149.999 101.994Z" fill="white"/>
<path d="M177.717 100.019C177.717 102.173 178.261 102.712 180.439 102.712H181.166C183.344 102.712 183.889 102.173 183.889 100.019V63.5105C183.889 61.3559 183.344 60.8172 181.166 60.8172H180.439C178.261 60.8172 177.717 61.3559 177.717 63.5105V100.019Z" fill="white"/>
<path d="M193.933 75.5403L188.366 81.7646C186.43 83.8594 185.946 84.9367 185.946 86.8519C185.946 88.7072 186.733 90.5027 188.366 92.358L195.143 100.198C196.898 102.173 198.048 102.712 200.771 102.712H201.8C204.523 102.712 204.704 102.293 202.949 100.198L193.268 89.1262C192.481 88.2883 192.118 87.5701 192.118 87.0314C192.118 86.3731 192.542 85.6549 193.328 84.8768L201.739 75.5403C203.494 73.4455 203.312 73.0266 200.589 73.0266H199.561C196.838 73.0266 195.688 73.5652 193.933 75.5403Z" fill="white"/>
<path d="M210.46 75.7198L215.24 94.9914C215.785 97.3854 216.572 97.9241 218.508 97.9241C219.96 97.9241 220.807 97.3256 221.352 94.9914L225.89 75.7198C226.374 73.5652 227.04 73.0266 229.279 73.0266H230.065C232.304 73.0266 232.728 73.5652 232.183 75.7198L225.648 102.712C223.651 110.911 219.658 115.161 212.699 115.879C211.186 116.059 210.4 115.52 209.976 113.665L209.795 112.886C209.371 111.211 209.855 110.732 211.489 110.492C215.604 109.954 217.903 107.5 219.295 102.772C218.69 103.071 217.782 103.191 216.511 103.191C211.973 103.191 210.581 100.797 209.189 95.5301L204.107 75.7198C203.562 73.5652 203.986 73.0266 206.224 73.0266H207.011C209.25 73.0266 209.916 73.5652 210.46 75.7198Z" fill="white"/>
<path d="M234.611 101.994C233.462 101.695 233.22 101.395 233.22 100.378V100.139C233.22 99.0014 233.583 98.762 234.611 99.0014C238.121 99.8392 241.207 100.258 243.809 100.258C248.892 100.258 251.131 99.1211 251.131 96.1884C251.131 93.974 249.981 92.6573 247.137 91.2807L239.029 87.3905C235.398 85.6549 233.704 83.8594 233.704 79.8495C233.704 75.1812 237.092 72.847 243.809 72.847C246.653 72.847 249.255 73.266 251.615 74.1039C252.764 74.5228 253.006 74.7024 253.006 75.7198V76.0191C253.006 77.0365 252.522 77.3956 251.554 77.0964C249.255 76.2585 246.653 75.8395 243.688 75.8395C238.908 75.8395 236.85 76.9168 236.85 79.7896C236.85 81.8843 238 83.4404 240.36 84.5776L248.589 88.4678C252.462 90.3231 254.338 92.0588 254.338 96.0687C254.338 101.096 250.768 103.251 243.446 103.251C240.662 103.251 237.697 102.832 234.611 101.994Z" fill="white"/>
<path fill-rule="evenodd" clip-rule="evenodd" d="M269.863 103.251C260.666 103.251 257.095 98.9415 257.095 90.9815V85.1162C257.095 77.2161 260.847 72.847 269.863 72.847C279.061 72.847 282.691 77.1562 282.691 85.1162V90.9815C282.691 98.8817 279 103.251 269.863 103.251ZM279.424 85.1162V90.9815C279.424 97.3854 277.124 100.258 269.863 100.258C262.662 100.258 260.302 97.3854 260.302 90.9815V85.1162C260.302 78.7123 262.662 75.8395 269.863 75.8395C277.124 75.8395 279.424 78.7123 279.424 85.1162Z" fill="white"/>
<path d="M31 34.5C31 36.433 29.433 38 27.5 38C25.567 38 24 36.433 24 34.5C24 32.567 25.567 31 27.5 31C29.433 31 31 32.567 31 34.5Z" fill="url(#iskysoft-horizontal-white-paint0_radial)"/>
<path d="M42 45C42 46.6569 40.6569 48 39 48C37.3431 48 36 46.6569 36 45C36 43.3431 37.3431 42 39 42C40.6569 42 42 43.3431 42 45Z" fill="url(#iskysoft-horizontal-white-paint1_radial)"/>
<path d="M45 39C45 41.2091 46.7909 43 49 43C50.0978 43 51.1015 42.489 52.1199 41.9706C52.6452 41.7032 53.1744 41.4338 53.7225 41.2315C54.2086 41.0521 54.7426 41.1656 55.1705 41.4577C55.7525 41.8551 56.1473 42.4634 56.3953 43.123C56.5694 43.5858 56.7848 44.0471 57.0331 44.5C71.4952 70.8886 62.9615 78.718 45.9136 87.5003C44.333 88.3146 42.4885 89.4212 41.4129 90.789C39.5388 93.1723 41.0613 96.5659 44.0039 96.9572C45.8553 97.2034 48.0505 96.4604 49.8289 95.8585L49.8304 95.858C50.213 95.7285 50.5764 95.6055 50.9129 95.5003C68.8187 89.9046 75.4417 89.5215 85.3113 107C85.4709 107.283 85.6336 107.581 85.8011 107.887C86.5629 109.279 87.4221 110.85 88.521 112C91.7033 115.332 96.8556 113.078 96.3356 108.5C96.1804 107.134 95.7433 105.594 95.2879 104C94.5995 101.592 93.6252 98.1513 92.4132 93.0003C88.7691 77.513 97.1594 71.9852 111.913 65.8313C112.049 65.7745 112.188 65.7171 112.327 65.6591C114.366 64.8121 116.72 63.8345 118.163 62.5005C120.865 60.003 119.02 55.9312 115.504 55.6925C113.738 55.5726 111.29 55.9409 107.913 56.5005C82.4481 60.7203 75.3205 52.3485 68.272 44.0696C67.9457 43.6863 67.6195 43.3033 67.2918 42.9216C66.8937 42.4582 66.4751 41.9064 66.033 41.3237C64.3732 39.1359 62.3831 36.5126 59.9136 36.5C58.6863 36.4938 57.3711 37.115 56.6394 38.1934C56.1786 38.8726 55.3816 39.3454 54.5854 39.1463L54.3507 39.0877C54.1218 39.0305 53.913 38.9093 53.7598 38.73C53.4693 38.3902 53.1991 38.0279 52.9305 37.6676C51.925 36.3193 50.9412 35 49 35C46.7909 35 45 36.7909 45 39Z" fill="url(#iskysoft-horizontal-white-paint2_radial)"/>
<path d="M70.1679 81.4297C85.2254 75.1927 99.1595 66.5839 111.449 55.9514C110.402 56.0938 109.228 56.2826 107.913 56.5005C82.4481 60.7203 75.3205 52.3485 68.272 44.0696C67.9457 43.6863 67.6195 43.3033 67.2918 42.9216C66.8937 42.4582 66.4751 41.9064 66.033 41.3237C64.3732 39.1359 62.3831 36.5126 59.9136 36.5C58.6863 36.4938 57.3711 37.115 56.6394 38.1934C56.1786 38.8726 55.3816 39.3454 54.5854 39.1463L54.3507 39.0877C54.1218 39.0305 53.913 38.9093 53.7598 38.73C53.4693 38.3902 53.1991 38.0279 52.9305 37.6676C51.925 36.3193 50.9412 35 49 35C46.7909 35 45 36.7909 45 39C45 41.2091 46.7909 43 49 43C50.0978 43 51.1015 42.489 52.1199 41.9706C52.6452 41.7032 53.1745 41.4338 53.7225 41.2315C54.2086 41.0521 54.7426 41.1656 55.1705 41.4577C55.7525 41.8551 56.1473 42.4634 56.3953 43.123C56.5694 43.5858 56.7848 44.0471 57.0331 44.5C71.4952 70.8886 62.9615 78.718 45.9136 87.5003C44.659 88.1466 43.2381 88.9771 42.1675 89.9762C51.7312 88.0396 61.1093 85.1819 70.1679 81.4297Z" fill="url(#iskysoft-horizontal-white-paint3_linear)"/>
<path d="M27.5 38C29.433 38 31 36.433 31 34.5C31 32.567 29.433 31 27.5 31C25.567 31 24 32.567 24 34.5C24 36.433 25.567 38 27.5 38Z" fill="url(#iskysoft-horizontal-white-paint4_linear)"/>
<path d="M39 48C40.6569 48 42 46.6569 42 45C42 43.3431 40.6569 42 39 42C37.3431 42 36 43.3431 36 45C36 46.6569 37.3431 48 39 48Z" fill="url(#iskysoft-horizontal-white-paint5_linear)"/>
<path d="M89.5 53C95.299 53 100 48.299 100 42.5C100 36.701 95.299 32 89.5 32C83.701 32 79 36.701 79 42.5C79 48.299 83.701 53 89.5 53Z" fill="url(#iskysoft-horizontal-white-paint6_linear)"/>
<defs>
<radialGradient id="iskysoft-horizontal-white-paint0_radial" cx="0" cy="0" r="1" gradientUnits="userSpaceOnUse" gradientTransform="translate(15.0213 -59.8917) rotate(64.1355) scale(189.81 218.486)">
<stop stop-color="#00C0F4"/>
<stop offset="0.769803" stop-color="#0084CF"/>
<stop offset="0.814524" stop-color="#01A7ED"/>
<stop offset="1" stop-color="#008CE4"/>
</radialGradient>
<radialGradient id="iskysoft-horizontal-white-paint1_radial" cx="0" cy="0" r="1" gradientUnits="userSpaceOnUse" gradientTransform="translate(15.0213 -59.8917) rotate(64.1355) scale(189.81 218.486)">
<stop stop-color="#00C0F4"/>
<stop offset="0.769803" stop-color="#0084CF"/>
<stop offset="0.814524" stop-color="#01A7ED"/>
<stop offset="1" stop-color="#008CE4"/>
</radialGradient>
<radialGradient id="iskysoft-horizontal-white-paint2_radial" cx="0" cy="0" r="1" gradientUnits="userSpaceOnUse" gradientTransform="translate(15.0213 -59.8917) rotate(64.1355) scale(189.81 218.486)">
<stop stop-color="#00C0F4"/>
<stop offset="0.769803" stop-color="#0084CF"/>
<stop offset="0.814524" stop-color="#01A7ED"/>
<stop offset="1" stop-color="#008CE4"/>
</radialGradient>
<linearGradient id="iskysoft-horizontal-white-paint3_linear" x1="24" y1="50.329" x2="40.394" y2="99.2057" gradientUnits="userSpaceOnUse">
<stop stop-color="#12EFC8"/>
<stop offset="1" stop-color="#00D895"/>
</linearGradient>
<linearGradient id="iskysoft-horizontal-white-paint4_linear" x1="24" y1="50.329" x2="40.394" y2="99.2057" gradientUnits="userSpaceOnUse">
<stop stop-color="#12EFC8"/>
<stop offset="1" stop-color="#00D895"/>
</linearGradient>
<linearGradient id="iskysoft-horizontal-white-paint5_linear" x1="24" y1="50.329" x2="40.394" y2="99.2057" gradientUnits="userSpaceOnUse">
<stop stop-color="#12EFC8"/>
<stop offset="1" stop-color="#00D895"/>
</linearGradient>
<linearGradient id="iskysoft-horizontal-white-paint6_linear" x1="24" y1="50.329" x2="40.394" y2="99.2057" gradientUnits="userSpaceOnUse">
<stop stop-color="#12EFC8"/>
<stop offset="1" stop-color="#00D895"/>
</linearGradient>
</defs>
</svg>
