<?xml version="1.0" encoding="utf-8"?>
<!-- Generator: Adobe Illustrator 27.0.0, SVG Export Plug-In . SVG Version: 6.00 Build 0)  -->
<svg version="1.1" id="Layer_1" xmlns="http://www.w3.org/2000/svg" xmlns:xlink="http://www.w3.org/1999/xlink" x="0px" y="0px"
	 viewBox="0 0 512 512" style="enable-background:new 0 0 512 512;" xml:space="preserve">
<style type="text/css">
	.st0{fill:url(#SVGID_1_);}
	.st1{fill:#FFFFFF;}
</style>
<g>
	
		<linearGradient id="SVGID_1_" gradientUnits="userSpaceOnUse" x1="-1047.4768" y1="-221.6028" x2="-1045.7701" y2="-221.6028" gradientTransform="matrix(1.836970e-14 -300 300 1.836970e-14 66736.8281 -313731.0625)">
		<stop  offset="0" style="stop-color:#FF780B"/>
		<stop  offset="1" style="stop-color:#FFA322"/>
	</linearGradient>
	<path class="st0" d="M399.6,512H112.4C50.3,512,0,461.7,0,399.6V112.4C0,50.3,50.3,0,112.4,0h287.3C461.7,0,512,50.3,512,112.4
		v287.3C512,461.7,461.7,512,399.6,512z"/>
	<path class="st1" d="M198.2,446.2c-0.6-0.2-1.2-0.4-1.9-0.6c-52.9-14.9-77.7-73.7-63.3-121.3c7.6-25,23.8-43.6,45-58.1
		c14.3-9.7,29-18.7,43.3-28.4c20.4-13.9,35.8-32,43.5-55.8c9.4-29.1,6.3-56.5-14.6-79.8c-21.9-24.5-50.1-34.1-82.6-29.9
		c-41.6,5.4-72.7,27.4-95.2,62.1c-0.9,1.4-1.6,3-2.4,4.5c9.4-6,19-9.9,29.8-11.2c21.9-2.7,42.9,11.8,47,32.8
		c3.2,16.2-1,30.9-10.6,43.7c-10.3,13.6-21.6,26.6-32.7,39.5c-25.8,29.9-39,63.9-33.5,103.7c4.7,33.5,21.8,59.6,49.6,78.4
		C143.2,441.7,170.2,446.3,198.2,446.2"/>
	<path class="st1" d="M268.5,230.8c15.1-0.1,29.9,2.8,44.5,7c20.8,6,40.4,15,58.7,26.4c17.4,10.8,36.1,13.9,56,10.6
		c3.9-0.6,7.8-1.9,11.4-3.4c1.3-0.5,2.7-2.5,2.8-3.9c0.3-4.8,0.3-9.6-0.1-14.4c-1.4-16.2-6.6-31.2-15.8-44.7
		c-11.2-16.4-26.9-26.7-45.4-32.9c-3.1-1.1-4.3-2.7-5-5.6c-0.9-4.2-2-8.3-3.5-12.3c-2.8-7.6-6.6-14.7-13-20.7
		c-1.2,1.4-2.2,2.6-3,3.8c-8.8,12.7-12.3,27-12.3,42.2c0,4.3-1.2,7.5-4.7,9.8c-9.7,6.4-19,13.4-29.2,18.8
		C296.5,218.5,282.3,224.4,268.5,230.8"/>
	<path class="st1" d="M321.2,414.7c4.7-13.5,6.9-26.4,6.8-39.8c-0.1-17.6-3.3-34.6-12.1-49.7c-20-34.2-50.1-52.1-90-51.8
		c-19.8,0.1-37.3,6.9-51.7,20.9c-7.1,6.9-12.5,14.9-16.5,24.9c37.6-39.7,98.6-27.8,121.9,8c14.1,21.7,17.7,45,9.3,69.5
		c-8.4,24.7-26.7,40-50.6,49.4c44.7-0.1,89.2-0.7,134.8-4.9C361.8,419.5,342.1,416.4,321.2,414.7"/>
	<path class="st1" d="M443.8,321.6c-0.4-8.1-4.5-13.6-10.6-17.6c-7.5-5-16.1-6.2-24.8-7c-15.8-1.4-31.1-5.2-45-12.9
		c-12-6.6-23.4-14.2-35.7-20.2c-19.3-9.4-40-14.1-61.4-16c-14.6-1.3-28.9-0.1-42.9,4.4c-1.6,0.5-3.2,1.4-4.8,2.1
		c1.8,0.7,3.4,0.7,4.9,0.7c16.5-0.4,32.5,1.9,47.9,7.8c32,12.1,55.2,34.3,71.7,63.9c1.6,2.8,3.5,4.9,6.4,5.2
		c7.5,0.7,15.1,1.7,22.5,1.3c9.6-0.5,18.3-5,26.9-9c10.2-4.7,20.9-7.1,32.2-5.3C435.3,319.5,439.1,320.5,443.8,321.6"/>
	<path class="st1" d="M198.2,446.2c-28,0.1-55-4.5-78.6-20.4c-27.8-18.7-44.9-44.9-49.6-78.4c-5.5-39.9,7.7-73.8,33.5-103.7
		c11.2-12.9,22.5-25.9,32.7-39.5c9.6-12.8,13.8-27.6,10.6-43.7c-4.1-21-25.2-35.5-47-32.8C89,129,79.3,132.9,70,138.9
		c0.8-1.5,1.5-3.1,2.4-4.5C95,99.7,126,77.7,167.6,72.3c32.4-4.2,60.7,5.4,82.6,29.9c20.8,23.3,23.9,50.7,14.6,79.8
		c-7.7,23.8-23.1,41.9-43.5,55.8c-14.3,9.7-29,18.7-43.3,28.4c-21.2,14.5-37.5,33-45,58.1c-14.4,47.7,10.5,106.4,63.3,121.3
		C196.9,445.8,197.5,446,198.2,446.2"/>
	<path class="st1" d="M268.5,230.8c13.8-6.4,28-12.3,41.4-19.4c10.2-5.4,19.5-12.4,29.2-18.8c3.5-2.3,4.7-5.5,4.7-9.8
		c0-15.2,3.5-29.5,12.3-42.2c0.9-1.2,1.9-2.3,3-3.8c6.4,5.9,10.2,13,13,20.7c1.5,4,2.6,8.2,3.5,12.3c0.6,3,1.8,4.6,5,5.6
		c18.6,6.2,34.2,16.6,45.4,32.9c9.2,13.5,14.4,28.5,15.8,44.7c0.4,4.8,0.4,9.6,0.1,14.4c-0.1,1.4-1.5,3.4-2.8,3.9
		c-3.7,1.5-7.5,2.8-11.4,3.4c-19.9,3.3-38.6,0.3-56-10.6c-18.4-11.4-37.9-20.4-58.7-26.4C298.4,233.6,283.6,230.7,268.5,230.8"/>
	<path class="st1" d="M321.2,414.7c20.9,1.6,40.7,4.7,51.8,26.7c-45.6,4.1-90.1,4.7-134.8,4.9c24-9.3,42.2-24.6,50.6-49.4
		c8.4-24.5,4.8-47.8-9.3-69.5c-23.2-35.8-84.3-47.7-121.9-8c4.1-10,9.5-18.1,16.5-24.9c14.4-14,32-20.7,51.7-20.9
		c39.9-0.3,70,17.6,90,51.8c8.8,15.1,12,32.1,12.1,49.7C328.1,388.4,325.9,401.3,321.2,414.7"/>
	<path class="st1" d="M443.8,321.6c-4.7-1-8.5-2.1-12.5-2.7c-11.3-1.8-22,0.5-32.2,5.3c-8.7,4-17.3,8.4-26.9,9
		c-7.5,0.4-15.1-0.6-22.5-1.3c-3-0.3-4.9-2.4-6.4-5.2c-16.5-29.5-39.7-51.7-71.7-63.9c-15.4-5.8-31.5-8.1-47.9-7.8
		c-1.5,0-3,0-4.9-0.7c1.6-0.7,3.1-1.6,4.8-2.1c14-4.5,28.3-5.7,42.9-4.4c21.4,2,42.1,6.6,61.4,16c12.3,6,23.7,13.6,35.7,20.2
		c14,7.8,29.2,11.5,45,12.9c8.7,0.8,17.3,2.1,24.8,7C439.3,308,443.4,313.4,443.8,321.6"/>
	<path class="st1" d="M214.4,317.6c-30.2,0-54.7,24.3-54.7,54.4c-0.1,30.3,24.4,54.7,54.8,54.6c30.3-0.1,54.5-24.3,54.5-54.5
		C268.9,341.9,244.6,317.6,214.4,317.6z M214,397.2c-13.8-0.1-25-11.3-25-25.1c0-13.8,11.5-25.2,25.4-25.2s25.3,11.5,25.1,25.4
		C239.4,386.5,228.3,397.3,214,397.2z"/>
</g>
</svg>
