<svg xmlns="http://www.w3.org/2000/svg"  viewBox="0 0 64 64" width="64px" height="64px"><radialGradient id="G0icHMcgI0H__DPIV16uCa" cx="32" cy="33.776" r="31.259" gradientTransform="matrix(1 0 0 -1 0 65.276)" gradientUnits="userSpaceOnUse"><stop offset="0" stop-color="#edd6a1"/><stop offset=".106" stop-color="#f0dbaa"/><stop offset=".437" stop-color="#f7e7c2"/><stop offset=".744" stop-color="#fbeed1"/><stop offset="1" stop-color="#fdf1d6"/></radialGradient><path fill="url(#G0icHMcgI0H__DPIV16uCa)" d="M59,54c-1.105,0-2-0.895-2-2s0.895-2,2-2h1.5c1.925,0,3.5-1.575,3.5-3.5S62.425,43,60.5,43H53	c-1.381,0-2.5-1.119-2.5-2.5S51.619,38,53,38h5c1.65,0,3-1.35,3-3s-1.35-3-3-3H42v-6h18c2.335,0,4.22-2.028,3.979-4.41	C63.77,19.514,61.897,18,59.811,18H59c-1.105,0-2-0.895-2-2s0.895-2,2-2h0.357c1.308,0,2.499-0.941,2.63-2.242	C62.137,10.261,60.966,9,59.5,9h-6C52.672,9,52,8.328,52,7.5S52.672,6,53.5,6h4.857c1.308,0,2.499-0.941,2.63-2.242	C61.137,2.261,59.966,1,58.5,1H4.643c-1.308,0-2.499,0.941-2.63,2.242C1.863,4.739,3.034,6,4.5,6H8c1.105,0,2,0.895,2,2	s-0.895,2-2,2H6.189c-2.086,0-3.958,1.514-4.168,3.59C1.78,15.972,3.665,18,6,18h2.5c1.933,0,3.5,1.567,3.5,3.5S10.433,25,8.5,25	H5.189c-2.086,0-3.958,1.514-4.168,3.59C0.78,30.972,2.665,33,5,33h17v11H6c-1.65,0-3,1.35-3,3s1.35,3,3,3l0,0c1.105,0,2,0.895,2,2	s-0.895,2-2,2H4.189c-2.086,0-3.958,1.514-4.168,3.59C-0.22,59.972,1.665,62,4,62h54.811c2.086,0,3.958-1.514,4.168-3.59	C63.22,56.028,61.335,54,59,54z"/><linearGradient id="G0icHMcgI0H__DPIV16uCb" x1="32.032" x2="31.834" y1="6.114" y2="69.562" gradientTransform="matrix(1 0 0 -1 0 65.276)" gradientUnits="userSpaceOnUse"><stop offset="0" stop-color="#fd5752"/><stop offset=".989" stop-color="#fa5478"/></linearGradient><polygon fill="url(#G0icHMcgI0H__DPIV16uCb)" points="17,17 17,10 46,9 46,17 45,19 45,46 47,50 46,55 18,55 17,48 20,46 19,18"/><linearGradient id="G0icHMcgI0H__DPIV16uCc" x1="14.987" x2="49.014" y1="33.276" y2="33.276" gradientTransform="matrix(1 0 0 -1 0 65.276)" gradientUnits="userSpaceOnUse"><stop offset=".122" stop-color="#5e6d7b"/><stop offset=".191" stop-color="#5d6b79"/><stop offset="1" stop-color="#515c69"/></linearGradient><path fill="url(#G0icHMcgI0H__DPIV16uCc)" d="M46.233,44.909l0.003-26.197l0.558-0.558	c0.977-0.977,1.526-2.302,1.526-3.683v-2.262C48.32,9.332,45.988,7,43.111,7H35.82c-1.42,0-2.705,0.574-3.646,1.498	C31.233,7.574,29.947,7,28.528,7h-8.333c-2.876,0-5.208,2.332-5.208,5.208v4.167v0.077c0,1.136,0.642,2.175,1.658,2.683l0.069,0.035	l0.356,0.178v26.196c-1.264,0.951-2.083,2.464-2.083,4.164v2.083c0,2.876,2.332,5.208,5.208,5.208h8.333	c1.42,0,2.705-0.574,3.646-1.498C33.114,56.426,34.4,57,35.82,57h7.667c2.483,0,4.62-1.752,5.107-4.187l0.297-1.487	C49.389,48.836,48.346,46.317,46.233,44.909z M28.528,53.875h-8.333c-1.151,0-2.083-0.933-2.083-2.083v-2.083	c0-0.612,0.264-1.162,0.684-1.544c0.865-0.784,1.399-1.865,1.399-3.032V18.704c0-0.789-0.446-1.51-1.152-1.863l0,0	c-0.571-0.286-0.932-0.869-0.932-1.508v-3.125c0-1.151,0.933-2.083,2.083-2.083h8.333c1.151,0,2.083,0.933,2.083,2.083v1.863l0,0	c0,0.808-0.321,1.582-0.892,2.154l-0.276,0.276c-0.586,0.586-0.915,1.381-0.915,2.21v24.711c0,1.382,0.409,2.733,1.176,3.883	l0.033,0.049c0.57,0.856,0.875,1.861,0.875,2.889v1.548C30.611,52.942,29.678,53.875,28.528,53.875z M45.827,50.714L45.529,52.2	c-0.195,0.974-1.05,1.675-2.043,1.675H35.82c-1.151,0-2.083-0.933-2.083-2.083v-1.548V50.14c0-0.943,0.375-1.848,1.042-2.515	s1.042-1.572,1.042-2.515V19.72c0-0.823-0.243-1.627-0.7-2.311l-0.684-1.026c-0.456-0.684-0.7-1.489-0.7-2.311v-1.863	c0-1.151,0.933-2.083,2.083-2.083h7.292c1.151,0,2.083,0.933,2.083,2.083v2.262c0,0.552-0.219,1.082-0.61,1.473l-0.558,0.558	c-0.586,0.586-0.915,1.381-0.915,2.21v26.204c0,1.042,0.521,2.015,1.388,2.594C45.55,48.209,46.074,49.475,45.827,50.714z"/></svg>