<svg xmlns="http://www.w3.org/2000/svg" viewBox="0 0 48 48">
  <defs>
    <linearGradient id="br1" x1="0%" y1="0%" x2="100%" y2="100%">
      <stop offset="0%" style="stop-color:#FB542B"/>
      <stop offset="100%" style="stop-color:#FF3D00"/>
    </linearGradient>
  </defs>
  <path d="M24 4L8 12v12c0 10 7 19 16 22 9-3 16-12 16-22V12L24 4z" fill="url(#br1)"/>
  <path d="M24 10l-10 5v8c0 7 5 13 10 15 5-2 10-8 10-15v-8L24 10z" fill="#fff" opacity="0.3"/>
  <path d="M24 15l-5 3v6c0 4 3 8 5 9 2-1 5-5 5-9v-6l-5-3z" fill="#fff"/>
</svg>
