<svg xmlns="http://www.w3.org/2000/svg" viewBox="0 0 48 48">
  <circle cx="24" cy="24" r="22" fill="#4CAF50"/>
  <path fill="#FFC107" d="M24 6c7.3 0 13.5 4.3 16.4 10.5L24 24V6z"/>
  <path fill="#F44336" d="M24 6C14.1 6 6 14.1 6 24c0 2.3.4 4.5 1.2 6.5L24 24V6z"/>
  <path fill="#4CAF50" d="M7.2 30.5c2.7 5.3 8.2 9 14.6 9.5l6.4-11L7.2 30.5z"/>
  <path fill="#2196F3" d="M40.4 16.5L28.3 39c5-2.1 8.9-6.5 10.5-11.9.9-2.9.9-6.1.6-8.6-.4-1.1-.6-1.4-1-2z"/>
  <circle cx="24" cy="24" r="8" fill="#fff"/>
  <circle cx="24" cy="24" r="6" fill="#2196F3"/>
</svg>
