<svg xmlns="http://www.w3.org/2000/svg" viewBox="0 0 48 48">
  <rect x="4" y="4" width="40" height="40" rx="8" fill="#5865F2"/>
  <path d="M32 16c-2-1-4-1.5-6-2l-.5 1c2 .5 4 1 5.5 2-2.5-1.5-5-2-8-2s-5.5.5-8 2c1.5-1 3.5-1.5 5.5-2l-.5-1c-2 .5-4 1-6 2-3 4-4 8-4 12 2 2.5 5 3 7 3l1.5-2c-1.5-.5-3-1.5-4-2.5l1-1c2.5 1.5 5.5 2 8.5 2s6-.5 8.5-2l1 1c-1 1-2.5 2-4 2.5l1.5 2c2 0 5-.5 7-3 0-4-1-8-4-12z" fill="#fff"/>
  <circle cx="19" cy="26" r="2.5" fill="#5865F2"/>
  <circle cx="29" cy="26" r="2.5" fill="#5865F2"/>
</svg>
