<svg xmlns="http://www.w3.org/2000/svg" viewBox="0 0 48 48">
  <defs>
    <linearGradient id="ed1" x1="0%" y1="0%" x2="100%" y2="100%">
      <stop offset="0%" style="stop-color:#0078D4"/>
      <stop offset="100%" style="stop-color:#00BCF2"/>
    </linearGradient>
  </defs>
  <circle cx="24" cy="24" r="22" fill="url(#ed1)"/>
  <path d="M12 28c0-8 6-14 14-14 6 0 11 3 13 8-3-3-7-4-11-4-7 0-12 5-12 12 0 3 1 5 3 7-5-2-7-5-7-9z" fill="#fff"/>
  <path d="M38 22c0 9-7 16-16 16-5 0-9-2-12-5 2 2 5 3 8 3 8 0 14-6 14-14 0-2-1-4-2-6 5 1 8 4 8 6z" fill="#fff" opacity="0.6"/>
</svg>
