<?xml version="1.0" encoding="utf-8"?>
<!-- Generator: Adobe Illustrator 26.1.0, SVG Export Plug-In . SVG Version: 6.00 Build 0)  -->
<svg version="1.1" id="Layer_3" xmlns="http://www.w3.org/2000/svg" xmlns:xlink="http://www.w3.org/1999/xlink" x="0px" y="0px"
	 viewBox="0 0 135 135" style="enable-background:new 0 0 135 135;" xml:space="preserve">
<style type="text/css">
	.st0{fill:#F36B16;}
	.st1{fill:#FFFFFF;}
</style>
<g>
	<path class="st0" d="M123,135H12c-6.6,0-12-5.4-12-12V12C0,5.4,5.4,0,12,0h111c6.6,0,12,5.4,12,12v111C135,129.6,129.6,135,123,135
		z"/>
	<path class="st1" d="M58.85,118c2.16,0,4.32,0,6.49,0c11.1-1.08,22.08-5.06,29.73-12.7c7.1-7.1,13-17.61,13.78-28.38
		c0.74-10.17-2.18-15.42-7.03-20.54c-0.62,5.24,0.07,10.14-1.62,14.32c-2.95-3.9-4.01-9.69-8.38-12.17
		c0.17,15.25-8.42,26.48-24.59,21.9c3.03,8.05,10.36,11.8,21.89,11.35c0.55,0.62-0.52,1.33-0.81,1.62
		c-4.09,4.12-10.36,7.3-18.11,7.3c-14.46,0-23.89-10.02-24.05-24.33c-0.21-18.82,17.02-33.79,34.59-34.86
		c9.44-0.58,18.05,4.53,22.16,10.27c-1.94-13.74-12.86-18.49-24.05-22.97c23.49-1.06,33.97,10.89,41.08,26.22
		c-3.26-21.6-15.3-36.77-39.19-38.65c-2.52,0-28.93-1.87-47.57,19.46C23.84,46.52,15.9,60.49,17.23,79.08
		C18.8,101.02,34.78,116.94,58.85,118z"/>
</g>
</svg>
