<?xml version="1.0" encoding="UTF-8"?>
<svg id="logosandtypes_com" data-name="logosandtypes com" xmlns="http://www.w3.org/2000/svg" viewBox="0 0 150 150">
  <defs>
    <style>
      .cls-1 {
        fill: #3b3a77;
      }

      .cls-2 {
        fill: #48b9ae;
      }

      .cls-3 {
        fill: none;
      }
    </style>
  </defs>
  <path class="cls-3" d="M0,0H150V150H0V0Z"/>
  <path class="cls-2" d="M81.74,12.35H45.68c-.08,0-.15-.01-.23-.01-10.02,0-18.15,8.12-18.15,18.15V121.2c0,10.02,8.12,18.15,18.15,18.15s18.15-8.12,18.15-18.15v-18.16h18.13c25.01,0,45.34-20.35,45.34-45.34S106.74,12.35,81.74,12.35Z"/>
  <g>
    <circle class="cls-1" cx="45.46" cy="30.48" r="18.15"/>
    <path class="cls-1" d="M123.81,110.78c5.74,8.2,3.76,19.52-4.46,25.27-8.2,5.74-19.52,3.76-25.27-4.46l-27.17-38.82c-5.74-8.2-3.76-19.52,4.46-25.27,8.2-5.74,19.52-3.76,25.27,4.46l27.17,38.82Z"/>
  </g>
</svg>